<svg width="122" height="36" viewBox="0 0 122 36" fill="none" xmlns="http://www.w3.org/2000/svg">
    <path fill-rule="evenodd" clip-rule="evenodd" d="M19.0771 0.155029L0 35.5721H23.5105C23.4958 35.5674 23.4818 35.5621 23.4686 35.5566L22.488 34.0727C19.1687 32.7158 17.6411 31.0862 16.9847 28.9806C18.1029 29.5584 19.3074 29.4818 19.8332 29.3466C18.5961 29.3962 17.3676 28.3096 16.6613 27.469C16.5106 26.3279 16.5184 25.0617 16.5767 23.6467C17.1324 24.0408 18.0637 24.0312 18.5175 23.9641C17.8285 23.9219 17.0935 23.2516 16.6743 22.7631C16.9023 19.9821 16.2282 18.2736 15.825 17.735C17.7536 18.0465 19.3222 18.7427 20.5134 19.5031C20.5261 19.564 20.5388 19.6241 20.5513 19.6833L20.5513 19.6834L20.5513 19.6834C20.7494 20.6195 20.906 21.36 20.3894 22.437C20.9044 22.1193 21.4627 21.2962 21.4793 20.1931C22.2434 20.8034 22.7672 21.3939 23.042 21.8052C23.4536 22.306 23.7363 22.9187 23.9217 23.5891C23.5546 24.8076 22.7345 26.6178 21.503 26.9416C22.1169 26.9277 23.344 26.629 24.2148 25.6364C24.2903 27.65 23.8588 29.7059 23.5805 30.673C23.1724 31.7734 22.9888 33.2865 22.9481 33.9056C23.1344 34.1461 23.5749 34.7416 23.8459 35.1998C23.8906 35.4235 23.8382 35.53 23.7541 35.5721H38.1542L19.0771 0.155029ZM41.9189 35.5722V0.165039H49.4569V35.5722H41.9189ZM83.5552 29.2552V35.5722H71.1866C68.8509 35.5722 67.0637 35.4483 65.8251 35.2006C61.4722 34.3512 58.3756 31.9271 56.5353 27.9281C55.3321 25.2385 54.7305 21.9119 54.7305 17.9482C54.7305 13.206 55.6506 9.3486 57.4908 6.37589C58.8356 4.21713 60.6228 2.6423 62.8523 1.6514C65.1173 0.660491 68.0192 0.165039 71.5582 0.165039H83.5552V6.48206H72.4075C69.0455 6.48206 66.5859 7.38449 65.0288 9.18935C63.7194 10.6757 63.0647 13.3653 63.0647 17.2581C63.0647 22.4958 64.0733 25.9286 66.0905 27.5565C67.5061 28.6889 69.7179 29.2552 72.726 29.2552H83.5552ZM103.857 0.165039H88.8341V35.5722H103.857C107.148 35.5722 109.59 35.4306 111.183 35.1475C112.81 34.829 114.297 34.2451 115.642 33.3957C117.765 32.0155 119.287 29.8745 120.207 26.9725C121.127 24.1414 121.587 21.1333 121.587 17.9482C121.587 14.7278 121.109 11.702 120.154 8.87084C118.88 5.19034 116.349 2.66 112.563 1.27981C110.51 0.536629 107.608 0.165039 103.857 0.165039ZM96.3721 29.2552V6.48206H103.857C106.759 6.48206 108.882 7.08368 110.227 8.28692C111.147 9.13626 111.89 10.428 112.457 12.1621C113.023 13.8961 113.306 15.8072 113.306 17.8952C113.306 19.7708 113.058 21.5403 112.563 23.2036C112.103 24.8669 111.483 26.1586 110.705 27.0787C109.431 28.5297 107.148 29.2552 103.857 29.2552H96.3721Z" fill="#227A30"/>
</svg>
