<svg width="90" height="117" viewBox="0 0 90 117" fill="none" xmlns="http://www.w3.org/2000/svg">
    <path d="M47.888 5.7351C47.1486 4.99556 46.1276 4.53735 45.0001 4.53735C43.8716 4.53711 42.8503 4.99544 42.1116 5.73534C41.3729 6.47008 40.916 7.49119 40.916 8.62094C40.916 9.75093 41.3729 10.7718 42.1116 11.5068C42.8252 12.2233 43.7798 12.6487 44.7897 12.7002H45.2097C46.2197 12.6486 47.1743 12.2232 47.888 11.5068C48.268 11.1285 48.5693 10.6788 48.7745 10.1835C48.9797 9.68814 49.0848 9.15708 49.0837 8.62094C49.0848 8.08483 48.9797 7.5538 48.7745 7.05853C48.5693 6.56325 48.268 6.11329 47.888 5.7351ZM45.0001 0C47.631 0 50.0133 0.158892 51.7371 1.88308C53.4612 3.60715 54.5287 5.98957 54.5287 8.62106H63.4186C64.5232 8.62106 65.4186 9.51649 65.4186 10.6211V20.2336C65.4186 21.3382 64.5232 22.2336 63.4186 22.2336H26.5811C25.4765 22.2336 24.5811 21.3382 24.5811 20.2336V10.6209C24.5811 9.51637 25.4765 8.62094 26.5811 8.62094H35.471C35.471 5.98921 36.5378 3.60715 38.262 1.88296C39.9868 0.158772 42.3687 0 45.0001 0ZM9.12866 12.7002H18.9512C20.0557 12.7002 20.9512 13.5956 20.9512 14.7002V16.1452C20.9512 17.2498 20.0558 18.1452 18.9512 18.1452H9.12866C8.13298 18.1452 7.22603 18.5535 6.56672 19.2115C5.90801 19.8694 5.49885 20.7771 5.49885 21.7753V107.08C5.49885 109.067 7.13813 110.71 9.12878 110.71H80.8711C82.861 110.71 84.5008 109.067 84.5008 107.08V21.7753C84.5008 20.7816 84.0916 19.874 83.4321 19.2115C82.773 18.5537 81.8658 18.1452 80.8712 18.1452H71.0487C69.9441 18.1452 69.0487 17.2498 69.0487 16.1452V14.7002C69.0487 13.5956 69.9441 12.7002 71.0487 12.7002H80.8712C83.3691 12.7002 85.6391 13.721 87.2822 15.3637C88.9259 17.0064 89.9461 19.275 89.9461 21.7753V107.08C89.9461 112.071 85.8662 116.155 80.8712 116.155H9.12866C4.13286 116.155 0.0537109 112.076 0.0537109 107.08V21.7753C0.0537109 19.275 1.07362 17.0064 2.71722 15.3637C4.36058 13.7211 6.63028 12.7002 9.12866 12.7002Z" fill="black"/>
    <path d="M18.7197 56.8333H56.7197V63.1667H18.7197V56.8333ZM18.7197 41H69.3864V47.3333H18.7197V41ZM18.7197 79H41.6306V72.6667H18.7197V79Z" fill="black"/>
    <path d="M75.6039 81.891C72.1237 80.4699 69.0519 78.7548 66.5084 76.8086C65.8232 76.2842 64.9843 76 64.1214 76C63.2586 76 62.4197 76.2842 61.7345 76.8086C59.191 78.7543 56.1191 80.4699 52.6385 81.891C52.4663 81.9603 52.3187 82.0794 52.2145 82.233C52.1104 82.3866 52.0544 82.5678 52.0537 82.7535V90.4223C52.0537 97.0597 62.3533 104 64.1212 104C65.8891 104 76.1887 97.0592 76.1887 90.4223V82.7535C76.188 82.5678 76.132 82.3866 76.0278 82.233C75.9237 82.0794 75.7761 81.9603 75.6039 81.891ZM70.0679 87.1344L63.0188 94.1829C62.8364 94.3654 62.5979 94.4564 62.3589 94.4564C62.12 94.4564 61.8815 94.3654 61.699 94.1829L58.1745 90.6584C58.0853 90.5723 58.0142 90.4693 57.9653 90.3554C57.9164 90.2416 57.8906 90.1191 57.8896 89.9952C57.8885 89.8712 57.9121 89.7483 57.959 89.6336C58.006 89.5189 58.0753 89.4147 58.1629 89.327C58.2506 89.2394 58.3548 89.1701 58.4695 89.1231C58.5842 89.0762 58.7071 89.0526 58.831 89.0537C58.955 89.0548 59.0775 89.0805 59.1913 89.1294C59.3052 89.1783 59.4082 89.2494 59.4943 89.3386L62.3589 92.2032L68.7476 85.8145C68.9226 85.6395 69.16 85.5411 69.4076 85.541C69.6551 85.541 69.8926 85.6393 70.0677 85.8143C70.2427 85.9893 70.3411 86.2267 70.3412 86.4743C70.3412 86.7219 70.2429 86.9593 70.0679 87.1344Z" fill="#227A30"/>
</svg>
