<svg width="141" height="171" viewBox="0 0 141 171" fill="none" xmlns="http://www.w3.org/2000/svg">
    <path d="M67 7.5C66.1716 7.5 65.5 8.17157 65.5 9C65.5 9.82843 66.1716 10.5 67 10.5L67 7.5ZM141 9.00001L126 0.339751L126 17.6603L141 9.00001ZM67 10.5L127.5 10.5L127.5 7.50001L67 7.5L67 10.5Z" fill="white"/>
    <path d="M67 160.5C66.1716 160.5 65.5 161.172 65.5 162C65.5 162.828 66.1716 163.5 67 163.5L67 160.5ZM141 162L126 153.34L126 170.66L141 162ZM67 163.5L127.5 163.5L127.5 160.5L67 160.5L67 163.5Z" fill="white"/>
    <path d="M66.5 9L66.5 162" stroke="white" stroke-width="3" stroke-linecap="round"/>
    <line x1="66" y1="87.5" x2="1.31134e-07" y2="87.5" stroke="white" stroke-width="3"/>
</svg>
