<svg width="104" height="23" viewBox="0 0 104 23" fill="none" xmlns="http://www.w3.org/2000/svg">
    <path d="M9.9648 22.752C6.72 22.752 4.2432 21.8496 2.5344 20.0448C0.8448 18.24 0 15.6768 0 12.3552C0 10.704 0.2592 9.2352 0.7776 7.9488C1.296 6.6432 2.0064 5.5488 2.9088 4.6656C3.8112 3.7632 4.8864 3.0816 6.1344 2.6208C7.3824 2.16 8.736 1.9296 10.1952 1.9296C11.04 1.9296 11.808 1.9968 12.4992 2.1312C13.1904 2.2464 13.7952 2.3904 14.3136 2.5632C14.832 2.7168 15.264 2.88 15.6096 3.0528C15.9552 3.2256 16.2048 3.36 16.3584 3.456L15.0624 7.0848C14.448 6.7584 13.728 6.48 12.9024 6.2496C12.096 6.0192 11.1744 5.904 10.1376 5.904C9.4464 5.904 8.7648 6.0192 8.0928 6.2496C7.44 6.48 6.8544 6.8544 6.336 7.3728C5.8368 7.872 5.4336 8.5248 5.1264 9.3312C4.8192 10.1376 4.6656 11.1168 4.6656 12.2688C4.6656 13.1904 4.7616 14.0544 4.9536 14.8608C5.1648 15.648 5.4912 16.3296 5.9328 16.9056C6.3936 17.4816 6.9888 17.9424 7.7184 18.288C8.448 18.6144 9.3312 18.7776 10.368 18.7776C11.0208 18.7776 11.6064 18.7392 12.1248 18.6624C12.6432 18.5856 13.104 18.4992 13.5072 18.4032C13.9104 18.288 14.2656 18.1632 14.5728 18.0288C14.88 17.8944 15.1584 17.7696 15.408 17.6544L16.6464 21.2544C16.0128 21.6384 15.12 21.984 13.968 22.2912C12.816 22.5984 11.4816 22.752 9.9648 22.752Z" fill="black"/>
    <path d="M23.8811 19.3536C24.3035 19.3536 24.7067 19.344 25.0907 19.3248C25.4747 19.3056 25.7819 19.2768 26.0123 19.2384V15.984C25.8395 15.9456 25.5803 15.9072 25.2347 15.8688C24.8891 15.8304 24.5723 15.8112 24.2843 15.8112C23.8811 15.8112 23.4971 15.84 23.1323 15.8976C22.7867 15.936 22.4795 16.0224 22.2107 16.1568C21.9419 16.2912 21.7307 16.4736 21.5771 16.704C21.4235 16.9344 21.3467 17.2224 21.3467 17.568C21.3467 18.24 21.5675 18.7104 22.0091 18.9792C22.4699 19.2288 23.0939 19.3536 23.8811 19.3536ZM23.5355 6.7968C24.8027 6.7968 25.8587 6.9408 26.7035 7.2288C27.5483 7.5168 28.2203 7.9296 28.7195 8.4672C29.2379 9.0048 29.6027 9.6576 29.8139 10.4256C30.0251 11.1936 30.1307 12.048 30.1307 12.9888V21.9168C29.5163 22.0512 28.6619 22.2048 27.5675 22.3776C26.4731 22.5696 25.1483 22.6656 23.5931 22.6656C22.6139 22.6656 21.7211 22.5792 20.9147 22.4064C20.1275 22.2336 19.4459 21.9552 18.8699 21.5712C18.2939 21.168 17.8523 20.6496 17.5451 20.016C17.2379 19.3824 17.0843 18.6048 17.0843 17.6832C17.0843 16.8 17.2571 16.0512 17.6027 15.4368C17.9675 14.8224 18.4475 14.3328 19.0427 13.968C19.6379 13.6032 20.3195 13.344 21.0875 13.1904C21.8555 13.0176 22.6523 12.9312 23.4779 12.9312C24.0347 12.9312 24.5243 12.96 24.9467 13.0176C25.3883 13.056 25.7435 13.1136 26.0123 13.1904V12.7872C26.0123 12.0576 25.7915 11.472 25.3499 11.0304C24.9083 10.5888 24.1403 10.368 23.0459 10.368C22.3163 10.368 21.5963 10.4256 20.8859 10.5408C20.1755 10.6368 19.5611 10.7808 19.0427 10.9728L18.4955 7.5168C18.7451 7.44 19.0523 7.3632 19.4171 7.2864C19.8011 7.1904 20.2139 7.1136 20.6555 7.056C21.0971 6.9792 21.5579 6.9216 22.0379 6.8832C22.5371 6.8256 23.0363 6.7968 23.5355 6.7968Z" fill="black"/>
    <path d="M41.7006 11.0016C41.3166 10.9056 40.8654 10.8096 40.347 10.7136C39.8286 10.5984 39.2718 10.5408 38.6766 10.5408C38.4078 10.5408 38.0814 10.5696 37.6974 10.6272C37.3326 10.6656 37.0542 10.7136 36.8622 10.7712V22.3488H32.571V8.0064C33.339 7.7376 34.2414 7.488 35.2782 7.2576C36.3342 7.008 37.5054 6.8832 38.7918 6.8832C39.0222 6.8832 39.3006 6.9024 39.627 6.9408C39.9534 6.96 40.2798 6.9984 40.6062 7.056C40.9326 7.0944 41.259 7.152 41.5854 7.2288C41.9118 7.2864 42.1902 7.3632 42.4206 7.4592L41.7006 11.0016Z" fill="black"/>
    <path d="M52.9866 14.6592C52.9866 11.8944 51.969 10.512 49.9338 10.512C49.4922 10.512 49.0506 10.5696 48.609 10.6848C48.1866 10.8 47.841 10.944 47.5722 11.1168V18.9216C47.7834 18.96 48.0522 18.9984 48.3786 19.0368C48.705 19.056 49.0602 19.0656 49.4442 19.0656C50.6154 19.0656 51.4986 18.6624 52.0938 17.856C52.689 17.0496 52.9866 15.984 52.9866 14.6592ZM57.3642 14.7744C57.3642 15.984 57.1818 17.0784 56.817 18.0576C56.4714 19.0368 55.9626 19.872 55.2906 20.5632C54.6186 21.2544 53.793 21.792 52.8138 22.176C51.8346 22.5408 50.721 22.7232 49.473 22.7232C48.9546 22.7232 48.4074 22.6944 47.8314 22.6368C47.2746 22.5984 46.7178 22.5408 46.161 22.464C45.6234 22.3872 45.105 22.3008 44.6058 22.2048C44.1066 22.0896 43.665 21.9744 43.281 21.8592V0.6912L47.5722 0V7.5456C48.0522 7.3344 48.5514 7.1712 49.0698 7.056C49.5882 6.9408 50.145 6.8832 50.7402 6.8832C51.8154 6.8832 52.7658 7.0752 53.5914 7.4592C54.417 7.824 55.1082 8.352 55.665 9.0432C56.2218 9.7344 56.6442 10.5696 56.9322 11.5488C57.2202 12.5088 57.3642 13.584 57.3642 14.7744Z" fill="black"/>
    <path d="M73.3919 14.7456C73.3919 15.936 73.2191 17.0304 72.8735 18.0288C72.5279 19.008 72.0286 19.8528 71.3758 20.5632C70.723 21.2544 69.9359 21.792 69.0143 22.176C68.1119 22.56 67.0943 22.752 65.9615 22.752C64.8479 22.752 63.8302 22.56 62.9086 22.176C62.0062 21.792 61.2286 21.2544 60.5758 20.5632C59.923 19.8528 59.4143 19.008 59.0495 18.0288C58.6847 17.0304 58.5023 15.936 58.5023 14.7456C58.5023 13.5552 58.6847 12.4704 59.0495 11.4912C59.4335 10.512 59.9519 9.6768 60.6047 8.9856C61.2767 8.2944 62.0638 7.7568 62.9662 7.3728C63.8878 6.9888 64.8863 6.7968 65.9615 6.7968C67.0559 6.7968 68.0543 6.9888 68.9567 7.3728C69.8783 7.7568 70.6655 8.2944 71.3183 8.9856C71.9711 9.6768 72.4799 10.512 72.8447 11.4912C73.2095 12.4704 73.3919 13.5552 73.3919 14.7456ZM69.0143 14.7456C69.0143 13.4208 68.7455 12.384 68.2079 11.6352C67.6894 10.8672 66.9407 10.4832 65.9615 10.4832C64.9823 10.4832 64.2238 10.8672 63.6862 11.6352C63.1486 12.384 62.8799 13.4208 62.8799 14.7456C62.8799 16.0704 63.1486 17.1264 63.6862 17.9136C64.2238 18.6816 64.9823 19.0656 65.9615 19.0656C66.9407 19.0656 67.6894 18.6816 68.2079 17.9136C68.7455 17.1264 69.0143 16.0704 69.0143 14.7456Z" fill="black"/>
    <path d="M75.276 7.7184C76.0056 7.5072 76.9464 7.3152 78.0984 7.1424C79.2504 6.9504 80.46 6.8544 81.7272 6.8544C83.0136 6.8544 84.0792 7.0272 84.924 7.3728C85.788 7.6992 86.4696 8.1696 86.9688 8.784C87.468 9.3984 87.8232 10.128 88.0344 10.9728C88.2456 11.8176 88.3512 12.7584 88.3512 13.7952V22.3488H84.06V14.3136C84.06 12.9312 83.8776 11.952 83.5128 11.376C83.148 10.8 82.4664 10.512 81.468 10.512C81.1608 10.512 80.8344 10.5312 80.4888 10.5696C80.1432 10.5888 79.836 10.6176 79.5672 10.656V22.3488H75.276V7.7184Z" fill="black"/>
    <path d="M95.3458 22.7808C94.8274 22.7808 94.2802 22.7424 93.7042 22.6656C93.1282 22.608 92.5714 22.5216 92.0338 22.4064C91.4962 22.2912 91.0066 22.1664 90.565 22.032C90.1234 21.8976 89.7778 21.7728 89.5282 21.6576L90.3634 18.0864C90.8626 18.2976 91.4962 18.528 92.2642 18.7776C93.0514 19.008 94.021 19.1232 95.173 19.1232C96.4978 19.1232 97.4674 18.8736 98.0818 18.3744C98.6962 17.8752 99.0034 17.2032 99.0034 16.3584C99.0034 15.84 98.8882 15.408 98.6578 15.0624C98.4466 14.6976 98.149 14.4096 97.765 14.1984C97.381 13.968 96.9202 13.8144 96.3826 13.7376C95.8642 13.6416 95.3074 13.5936 94.7122 13.5936H93.0418V10.1376H94.9426C95.365 10.1376 95.7682 10.0992 96.1522 10.0224C96.5554 9.9456 96.9106 9.8208 97.2178 9.648C97.525 9.456 97.765 9.2064 97.9378 8.8992C98.1298 8.5728 98.2258 8.1696 98.2258 7.6896C98.2258 7.3248 98.149 7.008 97.9954 6.7392C97.8418 6.4704 97.6402 6.2496 97.3906 6.0768C97.1602 5.904 96.8818 5.7792 96.5554 5.7024C96.2482 5.6064 95.9314 5.5584 95.605 5.5584C94.7794 5.5584 94.0114 5.6832 93.301 5.9328C92.6098 6.1824 91.9762 6.4896 91.4002 6.8544L89.8738 3.7152C90.181 3.5232 90.5362 3.3216 90.9394 3.1104C91.3618 2.8992 91.8226 2.7072 92.3218 2.5344C92.821 2.3616 93.349 2.2176 93.9058 2.1024C94.4818 1.9872 95.0866 1.9296 95.7202 1.9296C96.8914 1.9296 97.8994 2.0736 98.7442 2.3616C99.6082 2.6304 100.319 3.024 100.875 3.5424C101.432 4.0416 101.845 4.6368 102.114 5.328C102.383 6 102.517 6.7392 102.517 7.5456C102.517 8.3328 102.296 9.1008 101.855 9.8496C101.413 10.5792 100.818 11.136 100.069 11.52C101.106 11.9424 101.903 12.576 102.459 13.4208C103.035 14.2464 103.323 15.2448 103.323 16.416C103.323 17.3376 103.17 18.192 102.863 18.9792C102.555 19.7472 102.075 20.4192 101.423 20.9952C100.77 21.552 99.9346 21.9936 98.917 22.32C97.9186 22.6272 96.7282 22.7808 95.3458 22.7808Z" fill="black"/>
</svg>
