<svg width="30" height="39" viewBox="0 0 30 39" fill="none" xmlns="http://www.w3.org/2000/svg">
    <path d="M1.00441 16.4136C1.00441 17.268 1.52429 17.971 2.3315 18.533C3.1387 19.0951 4.27224 19.5462 5.60172 19.8998C8.26443 20.6078 11.789 20.9433 15.2708 20.9433C18.7526 20.9433 22.2771 20.6078 24.9398 19.8998C26.2693 19.5462 27.4029 19.0951 28.21 18.533C29.0173 17.971 29.5371 17.268 29.5371 16.4136C29.5371 15.5592 29.0173 14.8562 28.21 14.2941C27.4029 13.7321 26.2693 13.2809 24.9398 12.9274C22.2771 12.2194 18.7526 11.8838 15.2708 11.8838C11.789 11.8838 8.26443 12.2194 5.60172 12.9274C4.27224 13.2809 3.1387 13.7321 2.3315 14.2941C1.52429 14.8562 1.00441 15.5592 1.00441 16.4136ZM2.76149 16.4136C2.76149 16.3468 2.79277 16.2446 2.90818 16.1067C3.02283 15.9698 3.20557 15.8162 3.46681 15.6541C3.98876 15.3301 4.78386 14.9963 5.8508 14.6957C7.98141 14.0955 11.1505 13.6409 15.2708 13.6409C19.391 13.6409 22.5601 14.0955 24.6908 14.6957C25.7577 14.9963 26.5528 15.3301 27.0747 15.6541C27.336 15.8163 27.5187 15.9698 27.6334 16.1067C27.7488 16.2446 27.7801 16.3468 27.7801 16.4136C27.7801 16.4803 27.7488 16.5826 27.6334 16.7204C27.5187 16.8574 27.336 17.0109 27.0747 17.173C26.5528 17.497 25.7577 17.8309 24.6908 18.1314C22.5601 18.7316 19.391 19.1863 15.2708 19.1863C11.1505 19.1863 7.98141 18.7316 5.8508 18.1314C4.78386 17.8309 3.98876 17.497 3.46681 17.173C3.20557 17.0109 3.02283 16.8574 2.90818 16.7204C2.79277 16.5826 2.76149 16.4803 2.76149 16.4136Z" fill="black" stroke="black" stroke-width="0.54"/>
    <path d="M5.32166 34.5745H5.4303C6.08756 35.6828 7.3716 36.5299 9.05338 37.1008C10.7468 37.6756 12.877 37.9823 15.2712 37.9823C17.7253 37.9823 19.8571 37.6759 21.5375 37.0846C23.168 36.5109 24.3991 35.6594 25.0659 34.5335C25.0797 34.5266 25.0932 34.5189 25.1062 34.5101C25.1708 34.4671 25.2104 34.4116 25.2341 34.3644C25.2572 34.3182 25.2674 34.2753 25.2722 34.2462C25.2734 34.2391 25.2743 34.2324 25.2751 34.2262L29.53 16.5986L29.5375 16.5673V16.5352C29.5375 16.326 29.5032 16.1169 29.39 15.9357C29.2733 15.7491 29.0936 15.6247 28.8661 15.5488L28.8245 15.535H28.7807C28.5715 15.535 28.3624 15.5693 28.1812 15.6825C27.9946 15.7992 27.8702 15.9789 27.7943 16.2064L27.7908 16.2171L27.7881 16.228L23.5384 33.7125C23.2055 34.2396 22.4231 34.8634 21.0804 35.3596C19.717 35.8635 17.8026 36.2252 15.2712 36.2252C12.7988 36.2252 10.9142 35.8934 9.55081 35.4044C8.21014 34.9235 7.39481 34.2988 7.00315 33.7092L2.75426 16.228L2.7516 16.2171L2.74804 16.2064C2.67783 15.9958 2.56235 15.7865 2.38006 15.6498C2.18362 15.5025 1.93821 15.4615 1.67627 15.5488C1.46564 15.619 1.2564 15.7345 1.11968 15.9168C0.9746 16.1103 0.932644 16.3512 1.01477 16.6086L5.27203 34.3675L5.32166 34.5745Z" fill="black" stroke="black" stroke-width="0.54"/>
    <path d="M27.7801 16.4135C27.7801 16.6574 27.8625 16.8817 28.0265 17.0456C28.1904 17.2096 28.4147 17.292 28.6586 17.292C28.9025 17.292 29.1268 17.2096 29.2907 17.0456C29.4547 16.8817 29.5371 16.6574 29.5371 16.4135C29.5371 12.4417 27.801 8.57516 25.1605 5.70308C22.521 2.832 18.9541 0.930073 15.2708 0.930073C11.5875 0.930073 8.02059 2.832 5.38105 5.70308C2.74059 8.57516 1.00441 12.4417 1.00441 16.4135C1.00441 16.6574 1.0869 16.8817 1.25084 17.0456C1.41479 17.2096 1.63903 17.292 1.88295 17.292C2.12687 17.292 2.35112 17.2096 2.51506 17.0456C2.679 16.8817 2.76149 16.6574 2.76149 16.4135C2.76149 12.8994 4.28173 9.46327 6.61602 6.90452C8.95129 4.34471 12.0781 2.68715 15.2708 2.68715C18.4635 2.68715 21.5903 4.34471 23.9255 6.90452C26.2598 9.46327 27.7801 12.8994 27.7801 16.4135Z" fill="black" stroke="black" stroke-width="0.54"/>
</svg>
