<svg width="102" height="102" viewBox="0 0 102 102" fill="none" xmlns="http://www.w3.org/2000/svg">
    <circle cx="50.9169" cy="50.829" r="49.7421" stroke="#05761E" stroke-width="2"/>
    <path d="M55.2799 71.9813L55.2798 71.9811C54.6517 71.098 54.3901 70.3547 54.3741 69.676C54.3582 68.9995 54.5833 68.2583 55.1684 67.3725C55.5991 66.7205 55.9362 66.0288 56.2473 65.3377C56.3657 65.0745 56.4776 64.8181 56.5894 64.562C56.7823 64.1199 56.9749 63.6787 57.2004 63.2044C57.3475 62.895 57.3259 62.5318 57.1433 62.242C56.9606 61.9521 56.6423 61.7759 56.2998 61.7751C54.1346 61.7696 52.9239 60.5467 51.3813 58.9886C51.1682 58.7734 50.9488 58.5518 50.7197 58.3261M55.2799 71.9813L50.018 59.0386M55.2799 71.9813C57.3335 74.8699 58.2238 78.2663 59.0571 81.4452C59.2418 82.1497 59.4237 82.8436 59.6148 83.5188M55.2799 71.9813L2.17725 48.3778M50.7197 58.3261L50.018 59.0386M50.7197 58.3261C50.7198 58.3262 50.7199 58.3263 50.72 58.3264L50.018 59.0386M50.7197 58.3261C50.1417 57.7564 49.3489 57.3355 48.5928 57.1409L48.5909 57.1404C46.4835 56.6024 44.3596 56.1416 42.2433 55.7101M50.018 59.0386C49.5772 58.604 48.9453 58.2642 48.3436 58.1093C46.2585 57.577 44.1524 57.1199 42.0433 56.6899M42.2433 55.7101L42.0433 56.6899M42.2433 55.7101C42.2432 55.7101 42.2431 55.7101 42.243 55.71L42.0433 56.6899M42.2433 55.7101C42.0479 55.6702 41.9704 55.6192 41.9317 55.5867C41.8885 55.5505 41.8192 55.4739 41.7303 55.2748L41.729 55.272C41.2439 54.1942 40.7243 53.124 40.2123 52.0692C40.0109 51.6543 39.8107 51.2418 39.6142 50.8322C39.4228 50.4335 38.9923 50.2077 38.5555 50.2772L38.551 50.2779C38.4876 50.288 38.4122 50.3 38.3351 50.314C37.8596 50.4004 37.514 50.8146 37.514 51.2979V52.7752M42.0433 56.6899C41.4099 56.5606 41.0729 56.2553 40.8172 55.6825C40.3994 54.7544 39.9582 53.8369 39.514 52.9207V51.2979H38.7284C38.7231 51.2868 38.7178 51.2758 38.7126 51.2648C38.6464 51.2753 38.5802 51.2858 38.514 51.2979V51.3601L37.811 51.6974C38.0162 52.1252 38.2217 52.5484 38.4259 52.9691C38.4553 53.0296 38.4846 53.0901 38.514 53.1506V54.0901M37.514 52.7752C37.5473 52.8212 37.5806 52.8672 37.6139 52.9133L37.6146 52.9142C37.7911 53.1591 37.8742 53.198 37.8842 53.2021C37.8861 53.2029 37.888 53.2035 37.8917 53.2042C37.8956 53.2049 37.9059 53.2064 37.925 53.2058C37.9647 53.2047 38.0459 53.1947 38.1822 53.1468L38.514 54.0901M37.514 52.7752C36.5955 51.5067 35.6904 50.2807 34.7884 49.0589C33.7476 47.6491 32.7108 46.2448 31.6621 44.7868C31.504 44.565 31.3837 44.1967 31.3749 43.8809C31.3498 42.8667 31.3505 41.8495 31.3524 40.8187L31.3526 40.6768C31.3545 39.6954 31.3563 38.701 31.336 37.7057L31.3359 37.704C31.3217 37.0613 31.1283 36.366 30.7956 35.8063C30.2094 34.8194 29.6253 33.8759 29.0468 32.9413C28.2891 31.7173 27.541 30.5087 26.8102 29.2386C26.5118 28.7198 26.1249 28.2359 25.5293 27.9712C24.9406 27.7095 24.3214 27.74 23.7376 27.8492M37.514 52.7752V52.9855V52.9868V54.0901H38.514M38.514 54.0901C37.676 54.3848 37.2307 54.0916 36.8035 53.4992C35.8753 52.2154 34.9344 50.9407 33.9935 49.6659C32.9396 48.238 31.8856 46.8101 30.8492 45.3691C30.5633 44.9691 30.3888 44.4022 30.3753 43.9075C30.3486 42.8314 30.3506 41.7549 30.3526 40.6784C30.3545 39.6942 30.3563 38.71 30.3362 37.7261C30.3257 37.251 30.1782 36.7247 29.936 36.3172C29.3736 35.3705 28.7941 34.4337 28.2146 33.4971C27.4439 32.2514 26.6733 31.0059 25.9434 29.7374L9.77339 28.855M2.17725 48.3778C2.27586 47.6615 2.36574 46.9435 2.45561 46.2256C2.6523 44.6544 2.84896 43.0835 3.13704 41.5303M2.17725 48.3778V53.5157V48.3778ZM3.13704 41.5303L2.15374 41.3483C1.86023 42.9309 1.6573 44.5513 1.4587 46.1371C1.36971 46.8477 1.28159 47.5513 1.18659 48.2415C1.18037 48.2866 1.17725 48.3322 1.17725 48.3778V53.5157C1.17725 53.5592 1.18008 53.6025 1.18572 53.6456C1.26035 54.2155 1.32785 54.8024 1.39638 55.3983C1.54882 56.7239 1.70638 58.094 1.95906 59.4193C4.96831 75.2502 13.6204 87.0727 27.7283 94.8056C33.8 98.1337 40.3577 99.9419 47.2573 100.41C47.2957 100.413 47.3527 100.423 47.4568 100.448C47.4771 100.453 47.5054 100.461 47.5388 100.469C47.6278 100.492 47.7524 100.525 47.8539 100.547C47.9229 100.561 47.9932 100.569 48.0638 100.569H53.3953C53.4375 100.569 53.4796 100.566 53.5214 100.561L53.9641 100.505C55.0003 100.373 56.0449 100.24 57.1449 100.099C57.674 100.031 58.0568 99.5601 58.0147 99.0283C58.0005 98.8492 57.9862 98.6823 57.9726 98.5228C57.945 98.2007 57.9201 97.9086 57.9035 97.6061L57.9035 97.606C57.8755 97.0952 57.83 96.5861 57.7863 96.0973C57.7812 96.0405 57.7762 95.9839 57.7711 95.9276C57.7225 95.38 57.6784 94.8559 57.6593 94.3367C57.6211 93.3025 57.6843 92.3328 57.991 91.3775L57.991 91.3775C58.4874 89.8311 58.8506 88.2221 59.2019 86.6656C59.3259 86.1163 59.4484 85.5734 59.5748 85.0422C59.6538 84.7111 59.7815 84.1036 59.6148 83.5188M3.13704 41.5303C4.02062 36.7559 5.66885 32.2508 7.96023 27.9934M3.13704 41.5303L2.15381 41.3479M59.6148 83.5188C59.6148 83.5187 59.6148 83.5186 59.6147 83.5185L58.6533 83.7927L59.6153 83.5204C59.6151 83.5199 59.615 83.5194 59.6148 83.5188ZM7.96023 27.9934L2.15381 41.3479M7.96023 27.9934C8.00106 27.8417 8.07725 27.7011 8.18318 27.5836C8.33721 27.3036 8.49402 27.0246 8.65359 26.7466C8.79199 26.5076 9.08836 26.2805 9.35463 26.2053C9.60643 26.1352 9.85969 26.0709 10.1156 26.0127C10.5713 25.6461 11.023 25.2827 11.4738 24.9205L12.1001 25.7001L12.1884 26.6962C11.625 26.7461 11.0862 26.8283 10.5593 26.9393C10.5126 26.9769 10.4658 27.0145 10.419 27.0522C10.1913 27.2354 9.96247 27.4196 9.73189 27.6051C10.0285 27.8215 10.3134 28.0188 10.5941 28.1949M7.96023 27.9934L2.15381 41.3479M2.15381 41.3479C3.14655 35.9839 5.08168 30.9596 7.78635 26.2487L7.78815 26.2456C8.05992 25.7762 8.57209 25.3872 9.08291 25.243L9.08634 25.242C10.0195 24.9821 10.9779 24.7956 12.0119 24.704C12.4507 24.6651 12.8633 24.9181 13.0278 25.3268C13.1923 25.7355 13.0699 26.2038 12.7264 26.4797C12.1677 26.9286 11.6111 27.3765 11.0468 27.8306C10.8965 27.9515 10.7456 28.0729 10.5941 28.1949M10.5941 28.1949C10.3232 28.4128 10.05 28.6326 9.77339 28.855M10.5941 28.1949C11.5687 28.8064 12.4922 29.1613 13.6776 29.1659M9.77339 28.855C10.938 29.631 12.1131 30.1598 13.6737 30.1659M9.77339 28.855L13.6737 30.1659M13.6776 29.1659C16.722 29.1763 19.6614 28.6199 22.7165 28.0417C23.0553 27.9776 23.3956 27.9132 23.7376 27.8492M13.6776 29.1659L13.6737 30.1659M13.6776 29.1659C13.6774 29.1659 13.6773 29.1659 13.6771 29.1659L13.6737 30.1659M23.7376 27.8492C23.7376 27.8492 23.7377 27.8492 23.7378 27.8492L23.9215 28.8322L23.7376 27.8492Z" stroke="#05761E" stroke-width="2" stroke-linejoin="round"/>
    <path d="M79.5403 27.2165C79.5759 27.1615 79.6111 27.1071 79.6459 27.0533C80.0805 26.3819 80.4569 25.8003 80.8046 25.1849L80.8054 25.1836C81.0294 24.7885 81.3207 24.4353 81.7289 24.1807C82.1356 23.9271 82.5802 23.8202 83.0317 23.7891C84.5701 23.6814 86.1019 23.5402 87.6467 23.3977C88.248 23.3423 88.8513 23.2866 89.4576 23.2327L89.4608 23.2324C89.5478 23.225 89.6085 23.2207 89.6546 23.2175C89.7321 23.2121 89.7681 23.2095 89.8173 23.1996C89.8178 23.1995 89.8183 23.1994 89.8189 23.1993L89.8557 23.1916C90.1855 23.1227 90.5033 23.0563 90.7733 23.0283C91.0683 22.9978 91.4305 22.9967 91.8002 23.1588C92.1665 23.3195 92.4124 23.5845 92.592 23.8185C92.7585 24.0354 92.9324 24.3145 93.1158 24.6086L93.1388 24.6455L93.1388 24.6456C97.517 31.67 99.9655 39.3201 100.518 47.5735M79.5403 27.2165L100.518 47.5724C100.518 47.5728 100.518 47.5731 100.518 47.5735M79.5403 27.2165C79.5136 27.2 79.4872 27.1838 79.4609 27.1676C78.9195 26.8346 78.4626 26.5536 78.0237 26.1848C77.3135 25.588 76.6242 24.9607 75.9202 24.3176L75.8224 24.2283C75.1542 23.6178 74.4711 22.9938 73.7655 22.3925M79.5403 27.2165L71.8351 21.1208M100.518 47.5735C100.529 47.7305 100.552 47.8545 100.583 48.0227C100.602 48.1282 100.625 48.2512 100.65 48.4107C100.658 48.4617 100.662 48.5133 100.662 48.565V52.9421C100.662 52.9809 100.659 53.0197 100.655 53.0583C100.583 53.6764 100.518 54.3111 100.453 54.9545C100.307 56.3963 100.156 57.8819 99.9018 59.3227L99.9017 59.3231C98.1004 69.5133 93.5634 78.3334 86.2846 85.7036L86.2845 85.7037C79.8651 92.2012 72.2045 96.5851 63.3725 98.8978C63.3678 98.8992 63.3592 98.9017 63.3475 98.9052C63.2746 98.9269 63.0795 98.9852 62.9411 99.0124C62.9403 99.0125 62.9394 99.0127 62.9386 99.0129L62.7621 98.1076L62.4343 98.0058L62.5212 97.0096C62.5714 97.014 62.6175 97.0189 62.656 97.0234C62.6676 97.0198 62.6811 97.0156 62.6976 97.0106C62.9827 95.842 63.2742 94.7236 64.6021 93.9791C66.4437 92.9469 68.1788 91.7202 69.9102 90.4961C70.2268 90.2723 70.5433 90.0485 70.8603 89.8261C71.3116 89.5103 71.6952 88.9825 71.9119 88.4683C72.218 87.7415 72.4876 86.9996 72.7572 86.2576C73.0175 85.5411 73.2778 84.8245 73.5712 84.1213L100.518 47.5735ZM73.7655 22.3925L73.1169 23.1537L73.766 22.3931C73.7658 22.3929 73.7657 22.3927 73.7655 22.3925ZM73.7655 22.3925C73.2586 21.9598 72.9678 21.4996 72.8026 20.8679M72.8026 20.8679C72.8027 20.8679 72.8027 20.868 72.8027 20.8681L71.8351 21.1208M72.8026 20.8679C72.0328 17.9206 70.7615 15.2412 68.1394 13.1109C67.0613 12.2344 65.9279 11.8677 64.8797 11.6347C64.4755 11.5448 64.1126 11.4779 63.7713 11.4151C63.166 11.3036 62.6287 11.2047 62.0489 11.0118C61.7844 10.9238 61.4952 10.9502 61.251 11.0846C61.0068 11.2191 60.8298 11.4493 60.7627 11.7198C60.5761 12.4716 60.4966 13.2334 60.6806 13.9739C60.8711 14.7405 61.3158 15.3741 61.9776 15.9084C62.9401 16.6859 63.8078 17.5957 64.7225 18.5549C64.8 18.6362 64.8779 18.7178 64.9561 18.7998L64.9563 18.8C65.5429 19.4137 66.0846 20.0468 66.6384 20.6941C66.6558 20.7144 66.6732 20.7347 66.6906 20.7551M72.8026 20.8679L71.8351 21.1208M71.8351 21.1208L66.6906 20.7551M73.815 33.863C73.5809 33.6252 73.3661 33.3983 73.1596 33.1801C72.7446 32.7415 72.3631 32.3384 71.9256 31.9537L74.8604 36.5585M73.815 33.863C73.8151 33.8631 73.8152 33.8633 73.8153 33.8634L74.528 33.1618L73.8146 33.8626C73.8147 33.8627 73.8149 33.8629 73.815 33.863ZM73.815 33.863C74.369 34.4271 74.4394 34.6376 74.452 34.7607C74.4625 34.8629 74.4455 35.0228 74.3279 35.33M74.3279 35.33C74.6235 35.4106 74.9223 35.5091 75.2244 35.6271L74.8604 36.5585M74.3279 35.33C74.2544 35.5218 74.1417 35.771 73.972 36.0995L74.8604 36.5585M74.3279 35.33C71.2862 34.5012 68.5746 35.5734 66.0167 36.8816C63.0693 38.3879 60.489 40.2212 58.4648 42.9903C58.1677 43.3963 57.846 43.7884 57.5043 44.2049C57.4745 44.2413 57.4446 44.2778 57.4144 44.3146C57.0465 44.7634 56.6583 45.2415 56.3048 45.7486C55.6763 46.6502 55.1277 47.6842 54.9238 48.9489C54.2919 48.9023 53.7638 48.8535 53.2742 48.6969L74.8604 36.5585M51.0663 22.5335C51.0662 22.5336 51.0662 22.5336 51.0662 22.5337L51.9262 23.0439L51.0663 22.5335ZM51.0663 22.5335C51.2884 22.1593 51.6305 21.9598 51.8835 21.8505C52.1462 21.7371 52.4279 21.6716 52.6728 21.6286C52.9989 21.5713 53.3973 21.5351 53.7083 21.5069C53.8336 21.4955 53.9446 21.4854 54.0311 21.4757L54.0325 21.4756C54.4587 21.4286 54.6127 21.3239 54.6793 21.2578C54.7502 21.1876 54.863 21.0211 54.9273 20.5707L51.0663 22.5335ZM66.6906 20.7551C66.3433 20.9548 66.0144 21.0627 65.7012 21.1032C65.1639 21.1726 64.5604 21.0579 63.8506 20.6817C63.8501 20.6814 63.8496 20.6812 63.8491 20.6809L66.6906 20.7551ZM45.5909 49.1067C45.1649 49.3091 44.9382 49.7816 45.047 50.2406C45.2488 51.0924 45.4444 51.9166 45.6377 52.7312C45.7426 53.1735 45.8469 53.6129 45.9511 54.0525C45.9829 54.1862 46.0418 54.3119 46.1243 54.4219L46.3003 54.6564C46.5165 54.9446 46.871 55.0942 47.2282 55.048C47.5855 55.0019 47.8903 54.7672 48.0262 54.4336C48.3634 53.6061 48.7905 53.2827 49.2336 53.1307C49.5605 53.0185 49.9527 52.98 50.4279 52.9997C50.3851 53.843 50.3419 54.6957 50.2971 55.5879C50.2708 56.1116 50.6535 56.5667 51.1739 56.6306C52.5826 56.8037 53.5767 57.3346 54.2035 58.3578C54.6225 59.0434 55.1806 59.5469 55.9324 59.7269C56.6386 59.8959 57.3403 59.7334 57.9572 59.5048L57.958 59.5045C58.9162 59.1486 59.6993 58.8961 60.3122 58.9804L60.3134 58.9806C61.8983 59.1967 63.4428 59.5383 65.0332 59.8899C65.7225 60.0424 66.4204 60.1967 67.134 60.3435M45.5909 49.1067L72.6483 83.7362C72.9025 83.1268 73.4319 82.504 74.0594 82.182C74.9682 81.7157 75.9276 81.2742 76.8632 80.8436C77.4396 80.5783 78.0069 80.3172 78.548 80.057C78.662 80.0017 78.7593 79.9451 78.8301 79.8922C78.8641 79.8668 78.8823 79.8494 78.89 79.8416C80.2736 77.2446 81.6368 74.6372 83.0157 71.9996C83.2571 71.5379 83.499 71.0752 83.7416 70.6115C83.4641 70.4458 83.2007 70.2832 82.9447 70.1254C82.3147 69.7367 81.7302 69.3761 81.0932 69.0647C77.4376 67.2793 74.4197 64.7504 71.9551 61.5398L71.9536 61.5379C71.9423 61.5231 71.8751 61.4548 71.6907 61.3676C71.5176 61.2858 71.3055 61.2174 71.0869 61.1634L71.0853 61.163C70.2215 60.9481 69.3663 60.7823 68.4821 60.6108C68.0415 60.5254 67.5937 60.4385 67.134 60.3435M45.5909 49.1067C45.8895 48.9649 46.1876 48.8218 46.4854 48.6788M45.5909 49.1067L46.4854 48.6788M67.134 60.3435L67.3355 59.3641L67.1331 60.3434C67.1334 60.3434 67.1337 60.3435 67.134 60.3435ZM50.6743 47.5294C50.4736 47.4438 50.2359 47.3764 49.9919 47.3486C49.7662 47.3228 49.4255 47.3179 49.0886 47.4659L50.6743 47.5294ZM50.6743 47.5294C51.043 47.6867 51.4121 47.8681 51.7515 48.035M50.6743 47.5294L51.7515 48.035M51.7515 48.035C51.8547 48.0857 51.9551 48.1351 52.0519 48.182M51.7515 48.035L52.0519 48.182M52.0519 48.182C52.486 48.3924 52.8798 48.5703 53.2735 48.6967L52.0519 48.182ZM46.4854 48.6788C47.3513 48.2631 48.2156 47.8482 49.0876 47.4664L46.4854 48.6788ZM63.5257 97.8223C63.4841 97.9806 63.439 98.1421 63.3893 98.3023L63.197 98.2426L63.5257 97.8223ZM55.4494 48.9874C55.4488 48.9873 55.4483 48.9873 55.4477 48.9872C55.4481 48.9873 55.4484 48.9873 55.4488 48.9873L55.4494 48.9874ZM54.8599 49.4843L54.8602 49.4804L54.8599 49.4843Z" stroke="#05761E" stroke-width="2" stroke-linejoin="round"/>
    <path d="M44.9688 14.7414C45.2862 14.3076 45.5709 13.8497 45.8556 13.3919C46.1403 12.934 46.425 12.4762 46.7425 12.0424C46.9245 11.7928 47.3848 11.6033 47.7038 11.6213C48.2016 11.6517 48.6998 11.7219 49.1974 11.7921C49.9585 11.8994 50.7181 12.0065 51.4722 11.9702C53.5917 11.8655 55.7043 11.6242 57.8161 11.383C58.131 11.347 58.446 11.311 58.7609 11.2755L44.9688 14.7414ZM44.9688 14.7414C44.7432 15.0481 44.2964 15.3413 43.9293 15.3699L44.9688 14.7414ZM58.8727 12.2692C59.5222 12.1962 60.104 11.8194 60.4655 11.4894L60.468 11.4872C61.0453 10.9568 61.6242 10.3831 62.1864 9.82599C62.5319 9.48355 62.8712 9.14734 63.1999 8.83121C63.9188 8.1405 64.6552 7.75636 65.4215 7.59583C66.1955 7.43366 67.0653 7.48624 68.063 7.77123C68.6545 7.94027 69.251 7.97294 69.7739 7.97809C70.006 7.98037 70.2086 7.978 70.3988 7.97577C70.6844 7.97243 70.9418 7.96942 71.2285 7.98302C71.7653 8.0085 72.2263 7.60509 72.2722 7.06962L72.2993 6.75382C72.3351 6.33614 72.1066 5.94045 71.7269 5.76271C67.8184 3.93299 63.7315 2.64292 59.4743 1.90738M58.8727 12.2692L42.8231 1.79838L42.9891 2.78452L42.8233 1.79835C46.5563 1.17013 47.9265 1.08297 51.6882 1.08297C54.7853 1.08297 57.268 1.5197 59.0148 1.82696C59.1741 1.85499 59.3273 1.88194 59.4743 1.90738M58.8727 12.2692C58.5602 12.3045 58.2467 12.3403 57.9323 12.3762C55.8232 12.6172 53.6757 12.8626 51.5216 12.969L51.5204 12.969C50.7999 13.0038 50.0961 12.9244 49.4583 12.838C49.3136 12.8184 49.1733 12.7987 49.0364 12.7794C48.5521 12.7112 48.1103 12.649 47.6627 12.6207C47.6597 12.6212 47.6557 12.6219 47.6506 12.623C47.6277 12.6278 47.5977 12.6369 47.5664 12.6503C47.5465 12.6589 47.5309 12.6671 47.5199 12.6736C47.24 13.0601 46.9831 13.4724 46.7049 13.9199L46.6959 13.9344C46.417 14.3828 46.1156 14.8676 45.7758 15.3319L45.7743 15.3339C45.574 15.6063 45.3047 15.8389 45.0291 16.0098C44.76 16.1766 44.4019 16.3361 44.0069 16.3669L44.0059 16.3669C43.6876 16.3914 43.3659 16.4176 43.0414 16.444C41.3125 16.5849 39.505 16.7321 37.7136 16.6546L37.7128 16.6546C36.5733 16.6044 35.4077 16.2299 34.4127 15.9103C34.1346 15.8209 33.8698 15.7358 33.6226 15.6633L58.8727 12.2692ZM59.4743 1.90738L59.304 2.89278L59.4746 1.90743C59.4745 1.90741 59.4744 1.90739 59.4743 1.90738ZM51.9025 8.79455C52.1298 8.93266 52.2166 8.9476 52.2368 8.94809L52.239 8.94815C53.7615 8.98873 55.1453 8.99124 56.1649 8.51426C56.8779 8.17966 57.5533 7.69975 58.2718 7.12571C58.5273 6.92161 58.802 6.69367 59.0871 6.45713C59.1841 6.37664 59.2823 6.29515 59.3814 6.21327C58.8883 5.92529 58.4218 5.65668 57.9484 5.39961C56.5369 6.18167 55.1223 6.97658 53.6731 7.79501C53.5164 7.92508 53.2921 8.07923 53.0115 8.16745C52.6443 8.37526 52.2751 8.58401 51.9025 8.79455ZM69.7577 5.97778C69.7696 5.97793 69.7816 5.97807 69.7936 5.97818C69.9358 5.97958 70.1018 5.97801 70.2789 5.97633C70.6156 5.97315 70.9925 5.96958 71.3233 5.98527L71.2911 6.66285C70.783 6.42516 70.2719 6.19679 69.7577 5.97778ZM71.1574 6.97938L70.879 7.57406C70.4357 7.36654 69.99 7.16628 69.5421 6.97329C69.8065 6.98165 70.0741 6.97886 70.3417 6.97607C70.6147 6.97322 70.8878 6.97037 71.1574 6.97938ZM38.181 10.8L38.1833 10.7994L38.181 10.8ZM36.8934 9.88671C37.3763 10.1712 37.8429 10.4442 38.3143 10.7121C38.3389 10.726 38.361 10.7382 38.3814 10.749C39.9842 10.3409 41.5833 9.91607 43.2198 9.48136C43.257 9.47149 43.2942 9.4616 43.3314 9.45171C43.1609 9.16049 42.997 8.86776 42.8528 8.57545C41.4773 9.19779 39.9771 9.38194 38.4994 8.64345C38.1066 8.94767 37.715 9.25077 37.3187 9.55754C37.1776 9.66673 37.036 9.77638 36.8934 9.88671Z" stroke="#05761E" stroke-width="2" stroke-linejoin="round"/>
</svg>
