<svg width="141" height="117" viewBox="0 0 141 117" fill="none" xmlns="http://www.w3.org/2000/svg">
    <path d="M133.663 73.172C130.845 67.2356 127.492 62.3942 123.604 58.6477L119.525 62.726C122.851 65.9042 125.748 70.062 128.253 75.24C121.584 89.0429 112.117 95.5997 99.18 95.5997C95.2967 95.5997 91.7198 95.0018 88.4495 93.8058L84.0304 98.2248C88.5726 100.322 93.6225 101.371 99.18 101.371C114.586 101.371 126.08 93.3473 133.663 77.3001C133.968 76.6547 134.126 75.9498 134.126 75.236C134.126 74.5223 133.968 73.8174 133.663 73.172ZM128.568 47.4707L125.151 44.0496C125.091 43.99 125.02 43.9427 124.942 43.9105C124.865 43.8782 124.781 43.8616 124.697 43.8616C124.613 43.8616 124.529 43.8782 124.451 43.9105C124.374 43.9427 124.303 43.99 124.243 44.0496L115.477 52.8123C110.643 50.3435 105.211 49.1091 99.18 49.1091C83.7739 49.1091 72.2795 57.1327 64.6968 73.18C64.392 73.8254 64.2339 74.5303 64.2339 75.2441C64.2339 75.9578 64.392 76.6627 64.6968 77.3081C67.7261 83.6885 71.3732 88.8027 75.6381 92.6508L67.1559 101.131C67.0358 101.251 66.9683 101.414 66.9683 101.584C66.9683 101.754 67.0358 101.917 67.1559 102.037L70.5778 105.459C70.6981 105.579 70.8611 105.647 71.0311 105.647C71.2011 105.647 71.3641 105.579 71.4844 105.459L128.568 48.3781C128.627 48.3185 128.675 48.2478 128.707 48.17C128.739 48.0921 128.756 48.0087 128.756 47.9244C128.756 47.8401 128.739 47.7567 128.707 47.6788C128.675 47.601 128.627 47.5303 128.568 47.4707ZM70.1073 75.24C76.7843 61.4371 86.2508 54.8804 99.18 54.8804C103.552 54.8804 107.527 55.6306 111.133 57.156L105.498 62.791C102.829 61.3671 99.7736 60.8387 96.7817 61.2836C93.7899 61.7285 91.0203 63.1233 88.8814 65.2621C86.7426 67.401 85.3478 70.1706 84.9029 73.1624C84.458 76.1543 84.9864 79.2099 86.4103 81.8786L79.7236 88.5652C76.0228 85.2989 72.8326 80.8734 70.1073 75.24ZM89.8818 75.24C89.8832 73.8266 90.218 72.4334 90.859 71.1737C91.5 69.914 92.4291 68.8232 93.5709 67.99C94.7126 67.1568 96.0348 66.6047 97.43 66.3785C98.8253 66.1523 100.254 66.2584 101.601 66.6882L90.3075 77.9814C90.0244 77.0952 89.8808 76.1704 89.8818 75.24Z" fill="black"/>
    <path d="M98.8601 84.2175C98.5828 84.2175 98.3095 84.2046 98.0385 84.1798L93.8047 88.4136C96.3512 89.3889 99.1256 89.6056 101.793 89.0376C104.46 88.4696 106.905 87.1413 108.833 85.2131C110.761 83.2849 112.09 80.8395 112.658 78.1725C113.226 75.5055 113.009 72.731 112.034 70.1845L107.8 74.4184C107.825 74.6893 107.838 74.9626 107.838 75.24C107.838 76.4191 107.606 77.5868 107.156 78.6763C106.705 79.7657 106.043 80.7557 105.21 81.5894C104.376 82.4232 103.386 83.0844 102.296 83.5354C101.207 83.9863 100.039 84.2181 98.8601 84.2175Z" fill="black"/>
    <path d="M75.5231 38.972C67.9242 22.9648 56.4379 14.9091 41.0398 14.9091C25.6338 14.9091 14.1554 22.9648 6.55661 38.98C6.25182 39.6254 6.09375 40.3303 6.09375 41.044C6.09375 41.7577 6.25182 42.4626 6.55661 43.108C14.1554 59.1152 25.6418 67.1709 41.0398 67.1709C56.4459 67.1709 67.9242 59.1152 75.5231 43.1C76.1403 41.8015 76.1403 40.2945 75.5231 38.972ZM41.0398 61.3997C28.1106 61.3997 18.6442 54.8429 11.9672 41.04C18.6442 27.2371 28.1106 20.6803 41.0398 20.6803C53.969 20.6803 63.4355 27.2371 70.1125 41.04C63.4435 54.8429 53.9771 61.3997 41.0398 61.3997ZM40.7192 26.9325C32.928 26.9325 26.6117 33.2488 26.6117 41.04C26.6117 48.8312 32.928 55.1475 40.7192 55.1475C48.5104 55.1475 54.8267 48.8312 54.8267 41.04C54.8267 33.2488 48.5104 26.9325 40.7192 26.9325ZM40.7192 50.0175C35.7575 50.0175 31.7417 46.0017 31.7417 41.04C31.7417 36.0783 35.7575 32.0625 40.7192 32.0625C45.6809 32.0625 49.6967 36.0783 49.6967 41.04C49.6967 46.0017 45.6809 50.0175 40.7192 50.0175Z" fill="black"/>
</svg>
