<svg width="126" height="91" viewBox="0 0 126 91" fill="none" xmlns="http://www.w3.org/2000/svg">
    <path fill-rule="evenodd" clip-rule="evenodd" d="M1.12298 63.8H124.277C124.896 63.8 125.4 63.4128 125.4 62.9379V0.862233C125.4 0.387433 124.896 0 124.277 0H1.12298C0.504396 0 0 0.387531 0 0.862233V62.9379C0 63.4128 0.504396 63.8 1.12298 63.8ZM123.154 62.0756H2.24596V1.72437H123.154V62.0756ZM13.5363 11.3244H11.4748V51.9311H13.5363V11.3244ZM24.6682 11.3244H20.5452V51.9311H24.6682V11.3244ZM36.5547 11.3244H30.9317V51.9311H36.5547V11.3244ZM45.5372 11.3244H43.4758V51.9311H45.5372V11.3244ZM56.6692 11.3244H52.5463V51.9311H56.6692V11.3244ZM78.5647 11.3244H74.4418V51.9311H78.5647V11.3244ZM88.3019 11.3244H84.179V51.9311H88.3019V11.3244ZM98.7846 11.3244H94.6617V51.9311H98.7846V11.3244ZM117.311 11.3244H113.188V51.9311H117.311V11.3244ZM68.5556 11.3244H62.9327V51.9311H68.5556V11.3244ZM109.162 11.3244H103.539V51.9311H109.162V11.3244Z" fill="#040000"/>
    <path d="M75.4167 39.913C85.5663 45.3122 89.4085 57.9222 84.0048 68.0805C78.6097 78.2212 65.9954 82.059 55.8547 76.6598C45.6965 71.2562 41.8542 58.6506 47.2578 48.5099C52.6705 38.3558 65.2674 34.5094 75.4167 39.913Z" fill="white"/>
    <path d="M65.623 80.2306C62.0526 80.2306 58.4955 79.3355 55.3286 77.6514C50.1489 74.897 46.3592 70.296 44.6485 64.6903C42.938 59.0851 43.5126 53.1506 46.2671 47.9837C50.0962 40.8037 57.5218 36.3429 65.6537 36.3429C69.2195 36.3429 72.7768 37.2333 75.9434 38.9219C86.6235 44.602 90.6807 57.9181 84.9963 68.6071C81.1847 75.7743 73.7592 80.2306 65.623 80.2306ZM65.6537 38.5886C58.3552 38.5886 51.6839 42.5933 48.2496 49.0364C45.7759 53.6768 45.2582 59.0058 46.7934 64.0325C48.3285 69.0634 51.7366 73.1953 56.3814 75.669C59.2281 77.1819 62.4211 77.9847 65.623 77.9847C72.9257 77.9847 79.5926 73.9847 83.0138 67.5544C88.1193 57.9575 84.4745 46.0013 74.8907 40.9044C72.0444 39.3913 68.8512 38.5886 65.6537 38.5886Z" fill="black"/>
    <path d="M90.2763 72.6773L83.478 69.0632L84.5306 67.0806L91.329 70.6948L90.2763 72.6773Z" fill="black"/>
    <path d="M117.917 81.678C119.838 82.6956 120.557 85.0816 119.539 86.994C118.513 88.9108 116.145 89.6344 114.223 88.6167L92.4157 77.0025C90.5033 75.985 89.7753 73.6075 90.7929 71.6865C91.819 69.7742 94.1965 69.0459 96.1089 70.0679L117.917 81.678Z" fill="#227A30"/>
    <path d="M116.066 90.2C115.25 90.2 114.43 89.994 113.697 89.608L91.8897 77.9936C89.4334 76.6866 88.4991 73.6207 89.8019 71.1602C91.0781 68.7783 94.267 67.8004 96.6397 69.0766L118.443 80.6868C119.632 81.3184 120.505 82.3752 120.899 83.6648C121.298 84.9587 121.167 86.327 120.531 87.5202C119.645 89.1737 117.935 90.2 116.066 90.2ZM94.267 70.7256C93.2274 70.7256 92.2757 71.3004 91.7845 72.2169C91.0607 73.5811 91.5784 75.2871 92.9425 76.011L114.75 87.6254C116.097 88.3448 117.838 87.792 118.549 86.463C118.904 85.8008 118.974 85.042 118.755 84.3226C118.535 83.6078 118.053 83.0199 117.391 82.669L95.5829 71.059C95.1705 70.8399 94.7274 70.7256 94.267 70.7256Z" fill="#040000"/>
</svg>
