<svg width="32" height="34" viewBox="0 0 32 34" fill="none" xmlns="http://www.w3.org/2000/svg">
    <path fill-rule="evenodd" clip-rule="evenodd" d="M8.46895 13.6688C8.76899 13.3688 9.17588 13.2003 9.60015 13.2003C10.0244 13.2003 10.4313 13.3688 10.7313 13.6688L16.0001 18.9376L21.2689 13.6688C21.4165 13.516 21.5931 13.3941 21.7883 13.3102C21.9835 13.2264 22.1935 13.1822 22.4059 13.1804C22.6184 13.1785 22.829 13.219 23.0257 13.2995C23.2223 13.3799 23.4009 13.4987 23.5512 13.649C23.7014 13.7992 23.8202 13.9778 23.9007 14.1745C23.9811 14.3711 24.0216 14.5818 24.0197 14.7942C24.0179 15.0067 23.9738 15.2166 23.8899 15.4118C23.8061 15.607 23.6842 15.7836 23.5313 15.9312L17.1313 22.3312C16.8313 22.6311 16.4244 22.7996 16.0001 22.7996C15.5759 22.7996 15.169 22.6311 14.8689 22.3312L8.46895 15.9312C8.16899 15.6311 8.00049 15.2243 8.00049 14.8C8.00049 14.3757 8.16899 13.9688 8.46895 13.6688V13.6688Z" fill="#227A30"/>
    <circle cx="16" cy="2" r="2" fill="#227A30"/>
    <circle cx="16" cy="10" r="2" fill="#227A30"/>
</svg>
