<svg width="81" height="45" viewBox="0 0 81 45" fill="none" xmlns="http://www.w3.org/2000/svg">
    <path fill-rule="evenodd" clip-rule="evenodd" d="M0 26.5224C0 38.4348 9.59051 44.063 18.4491 44.2396C25.0557 44.3714 29.1941 43.8544 33.4658 42.2289L33.4659 42.2206H33.4824V42.2196H33.5259V29.9937H38.6422V25.9848H23.393V29.9937H28.5093V40.7805C25.0191 41.6821 21.5785 42.5123 16.1272 40.8577C8.22765 38.4601 5.30628 25.8158 8.17717 22.0805C10.5243 19.0267 15.6981 19.38 21.4777 19.9353C34.4916 21.1855 40.1101 12.5478 40.9593 0.29989C40.9769 0.0467016 40.6114 -0.0988826 40.4292 0.0778553C39.8519 0.637999 38.9729 1.31412 37.8825 1.91522C36.6871 2.5742 34.5001 2.46544 32.6767 2.37476C32.0978 2.34598 31.5556 2.31902 31.0934 2.31902C27.5937 2.14235 19.1507 2.43511 13.3762 5.0195C6.15812 8.24999 0 14.61 0 26.5224Z" fill="#237E36"/>
    <path fill-rule="evenodd" clip-rule="evenodd" d="M29.1246 7.72002C29.1246 8.09859 29.8817 8.45193 31.2193 8.78002C32.7841 9.16384 35.2589 9.18307 36.6203 8.09859C37.7883 7.16815 38.5215 5.54929 39.1001 4.14334C39.1838 3.93988 38.886 3.74659 38.7273 3.89893C37.9383 4.65612 36.867 5.54196 35.7622 6.13002C33.7991 7.17489 31.8259 7.16897 30.5713 7.16521C30.4988 7.16499 30.4288 7.16478 30.3612 7.16478C29.3719 7.16478 29.1246 7.34145 29.1246 7.72002ZM23.5975 9.38577C22.0975 9.68208 20.6046 10.2068 19.6831 10.8506C19.1163 11.2467 19.4928 11.846 20.1835 11.8126C20.9841 11.7739 21.9464 11.7568 22.6889 11.8843C24.1945 12.1429 25.3646 12.5682 26.4595 12.9662C27.8815 13.483 29.177 13.9539 30.9166 13.9539C33.6508 13.9539 35.5792 12.3319 36.5446 11.1229C36.9279 10.6431 36.4992 10.1942 35.8983 10.321C35.1853 10.4715 34.3159 10.5862 33.5026 10.5862C32.8049 10.5862 31.6517 10.346 30.3334 10.0714C28.0886 9.60383 25.3653 9.03656 23.5975 9.38577ZM16.43 13.1967C14.6346 13.5127 13.1244 14.9416 12.272 16.1368C11.8623 16.7113 12.3097 17.3863 13.0154 17.3863H15.7233C16.242 17.3863 17.2086 17.4661 18.4018 17.5647C21.5045 17.8209 26.1396 18.2037 28.4181 17.6386C29.8648 17.2799 30.93 16.6275 31.5852 16.0315C32.0301 15.6268 31.6399 15.1911 31.0506 15.3115C30.2127 15.4825 29.139 15.6196 28.1405 15.6196C27.3023 15.6196 25.7897 15.1541 24.0719 14.6255C21.4446 13.8171 18.3375 12.861 16.43 13.1967Z" fill="#B2D43B"/>
    <path d="M50.8263 37.9044H41.7833C41.8646 38.7051 42.0604 39.3016 42.3707 39.6938C42.8066 40.2576 43.3754 40.5395 44.0773 40.5395C44.5206 40.5395 44.9417 40.4169 45.3407 40.1718C45.5845 40.0165 45.8467 39.7428 46.1275 39.3506L50.5714 39.8041C49.8917 41.1114 49.0716 42.051 48.1112 42.623C47.1507 43.1867 45.7729 43.4686 43.9776 43.4686C42.4187 43.4686 41.1923 43.2276 40.2983 42.7455C39.4043 42.2553 38.6618 41.4832 38.0708 40.4291C37.4871 39.367 37.1953 38.1209 37.1953 36.6911C37.1953 34.6566 37.7827 33.0102 38.9574 31.7519C40.1395 30.4937 41.7685 29.8645 43.8446 29.8645C45.5291 29.8645 46.8589 30.1464 47.8341 30.7102C48.8094 31.274 49.5519 32.091 50.0616 33.1614C50.5714 34.2317 50.8263 35.6248 50.8263 37.3407V37.9044ZM46.2383 35.5145C46.1497 34.5504 45.9132 33.86 45.5291 33.4433C45.1523 33.0266 44.6536 32.8182 44.033 32.8182C43.3163 32.8182 42.7438 33.1328 42.3152 33.7619C42.0419 34.1541 41.8683 34.7383 41.7944 35.5145H46.2383Z" fill="#237E36"/>
    <path d="M61.4487 38.0883L65.7375 38.6275C65.5011 39.6162 65.1132 40.4741 64.5739 41.2013C64.0346 41.9203 63.3438 42.48 62.5015 42.8803C61.6667 43.2807 60.6028 43.4809 59.3099 43.4809C58.0613 43.4809 57.0196 43.3542 56.1847 43.1009C55.3573 42.8395 54.6443 42.4228 54.0459 41.8508C53.4474 41.2707 52.9783 40.5926 52.6385 39.8164C52.2986 39.0401 52.1287 38.0106 52.1287 36.7279C52.1287 35.3879 52.3355 34.2726 52.7493 33.382C53.0522 32.7283 53.4659 32.1441 53.9905 31.6294C54.515 31.1065 55.0544 30.7184 55.6085 30.4651C56.4876 30.0647 57.6143 29.8645 58.9885 29.8645C60.9094 29.8645 62.3722 30.2445 63.377 31.0043C64.3892 31.7642 65.0984 32.8754 65.5048 34.3379L61.2603 34.963C61.1273 34.4074 60.8835 33.9907 60.5289 33.7129C60.1817 33.4269 59.7125 33.2839 59.1215 33.2839C58.3753 33.2839 57.7695 33.5822 57.304 34.1786C56.846 34.7669 56.6169 35.6616 56.6169 36.8627C56.6169 37.933 56.846 38.746 57.304 39.3016C57.7621 39.8572 58.3457 40.135 59.055 40.135C59.646 40.135 60.141 39.9675 60.54 39.6325C60.9463 39.2975 61.2493 38.7828 61.4487 38.0883Z" fill="#237E36"/>
    <path d="M67.5829 25.2073H72.0933V31.8255C72.7065 31.1228 73.316 30.6203 73.9219 30.318C74.5277 30.0157 75.2443 29.8645 76.0718 29.8645C77.2982 29.8645 78.2624 30.2771 78.9642 31.1024C79.6735 31.9276 80.0281 33.1941 80.0281 34.9017V43.1745H75.4955V36.017C75.4955 35.1999 75.3588 34.6239 75.0855 34.2889C74.8121 33.9458 74.428 33.7742 73.9329 33.7742C73.3862 33.7742 72.9429 34.003 72.6031 34.4605C72.2632 34.9181 72.0933 35.7392 72.0933 36.924V43.1745H67.5829V25.2073Z" fill="#237E36"/>
</svg>
