<svg width="81" height="45" viewBox="0 0 81 45" fill="none" xmlns="http://www.w3.org/2000/svg">
    <path fill-rule="evenodd" clip-rule="evenodd" d="M0 26.5224C0 38.4348 9.59115 44.063 18.4503 44.2396C25.0573 44.3714 29.1961 43.8544 33.4681 42.2289L33.4681 42.2206H33.4847V42.2196H33.5281V29.9937H38.6447V25.9848H23.3945V29.9937H28.5112V40.7805C25.0208 41.6821 21.5799 42.5123 16.1283 40.8577C8.22819 38.4601 5.30663 25.8158 8.17772 22.0805C10.525 19.0267 15.6992 19.38 21.4791 19.9353C34.4939 21.1855 40.1127 12.5478 40.9621 0.29989C40.9796 0.0467016 40.6141 -0.0988826 40.4319 0.0778553C39.8546 0.637999 38.9755 1.31412 37.885 1.91522C36.6896 2.5742 34.5024 2.46544 32.6788 2.37476C32.1 2.34598 31.5577 2.31902 31.0955 2.31902C27.5956 2.14235 19.152 2.43511 13.3771 5.0195C6.15853 8.24999 0 14.61 0 26.5224Z" fill="#237E36"/>
    <path fill-rule="evenodd" clip-rule="evenodd" d="M29.1266 7.72002C29.1266 8.09859 29.8838 8.45193 31.2214 8.78002C32.7862 9.16384 35.261 9.18307 36.6224 8.09859C37.7904 7.16815 38.5236 5.54929 39.1021 4.14334C39.1859 3.93988 38.8881 3.74659 38.7294 3.89893C37.9404 4.65612 36.8691 5.54196 35.7643 6.13002C33.8012 7.17489 31.828 7.16897 30.5734 7.16521C30.5009 7.16499 30.4308 7.16478 30.3633 7.16478C29.374 7.16478 29.1266 7.34145 29.1266 7.72002ZM23.5992 9.38577C22.0991 9.68208 20.6061 10.2068 19.6846 10.8507C19.1177 11.2467 19.4942 11.846 20.1849 11.8126C20.9856 11.7739 21.9479 11.7568 22.6906 11.8843C24.1963 12.1429 25.3664 12.5682 26.4614 12.9662C27.8835 13.483 29.1791 13.9539 30.9188 13.9539C33.6532 13.9539 35.5817 12.3319 36.5473 11.1229C36.9305 10.643 36.5018 10.1942 35.9009 10.321C35.1878 10.4715 34.3183 10.5862 33.505 10.5862C32.8073 10.5862 31.654 10.346 30.3356 10.0714C28.0906 9.60383 25.3671 9.03656 23.5992 9.38577ZM16.4312 13.1967C14.6357 13.5127 13.1255 14.9416 12.273 16.1368C11.8633 16.7113 12.3107 17.3863 13.0164 17.3863H15.7245C16.2433 17.3863 17.2099 17.4661 18.4032 17.5647C21.5061 17.8209 26.1415 18.2037 28.4201 17.6386C29.8669 17.2799 30.9323 16.6275 31.5875 16.0315C32.0325 15.6268 31.6422 15.1911 31.0529 15.3114C30.215 15.4825 29.1411 15.6196 28.1425 15.6196C27.3043 15.6196 25.7916 15.1541 24.0737 14.6255L24.0737 14.6255C21.4462 13.8171 18.3389 12.861 16.4312 13.1967Z" fill="#B2D43B"/>
    <path d="M50.8297 37.9043H41.7861C41.8673 38.7051 42.0631 39.3015 42.3734 39.6937C42.8094 40.2575 43.3783 40.5394 44.0802 40.5394C44.5235 40.5394 44.9447 40.4168 45.3436 40.1717C45.5875 40.0164 45.8498 39.7427 46.1305 39.3505L50.5748 39.804C49.895 41.1113 49.0749 42.0509 48.1144 42.6229C47.1538 43.1866 45.7759 43.4685 43.9805 43.4685C42.4215 43.4685 41.195 43.2275 40.301 42.7454C39.4069 42.2552 38.6644 41.4831 38.0733 40.4291C37.4896 39.3669 37.1978 38.1209 37.1978 36.691C37.1978 34.6565 37.7851 33.0101 38.9599 31.7519C40.1421 30.4936 41.7713 29.8644 43.8475 29.8644C45.5321 29.8644 46.862 30.1463 47.8373 30.7101C48.8126 31.2739 49.5551 32.0909 50.0649 33.1613C50.5748 34.2316 50.8297 35.6247 50.8297 37.3406V37.9043ZM46.2414 35.5144C46.1527 34.5503 45.9163 33.8599 45.5321 33.4432C45.1552 33.0265 44.6565 32.8181 44.0359 32.8181C43.3192 32.8181 42.7466 33.1327 42.318 33.7618C42.0447 34.154 41.871 34.7382 41.7971 35.5144H46.2414Z" fill="#237E36"/>
    <path d="M61.4528 38.0882L65.7419 38.6274C65.5054 39.6161 65.1175 40.474 64.5782 41.2012C64.0388 41.9202 63.348 42.4799 62.5057 42.8802C61.6708 43.2806 60.6068 43.4808 59.3138 43.4808C58.0651 43.4808 57.0233 43.3541 56.1884 43.1009C55.3609 42.8394 54.6479 42.4227 54.0494 41.8507C53.451 41.2706 52.9818 40.5925 52.6419 39.8163C52.3021 39.0401 52.1321 38.0106 52.1321 36.7278C52.1321 35.3878 52.339 34.2725 52.7528 33.3819C53.0557 32.7282 53.4694 32.144 53.994 31.6293C54.5186 31.1064 55.058 30.7183 55.6121 30.465C56.4914 30.0646 57.6181 29.8644 58.9924 29.8644C60.9134 29.8644 62.3764 30.2444 63.3812 31.0042C64.3934 31.7641 65.1027 32.8753 65.5091 34.3379L61.2644 34.9629C61.1314 34.4073 60.8876 33.9906 60.5329 33.7128C60.1856 33.4268 59.7165 33.2838 59.1254 33.2838C58.3791 33.2838 57.7733 33.5821 57.3078 34.1785C56.8497 34.7668 56.6207 35.6615 56.6207 36.8626C56.6207 37.9329 56.8497 38.7459 57.3078 39.3015C57.7659 39.8571 58.3496 40.1349 59.0589 40.1349C59.65 40.1349 60.145 39.9674 60.544 39.6324C60.9504 39.2974 61.2533 38.7827 61.4528 38.0882Z" fill="#237E36"/>
    <path d="M67.5874 25.2072H72.0981V31.8254C72.7113 31.1227 73.3209 30.6202 73.9268 30.3179C74.5326 30.0156 75.2493 29.8644 76.0768 29.8644C77.3033 29.8644 78.2675 30.2771 78.9695 31.1023C79.6788 31.9275 80.0334 33.194 80.0334 34.9016V43.1744H75.5005V36.0169C75.5005 35.1999 75.3638 34.6238 75.0905 34.2888C74.8171 33.9457 74.4329 33.7741 73.9378 33.7741C73.3911 33.7741 72.9478 34.0029 72.6079 34.4604C72.268 34.918 72.0981 35.7391 72.0981 36.9239V43.1744H67.5874V25.2072Z" fill="#237E36"/>
</svg>
