<svg width="121" height="67" viewBox="0 0 121 67" fill="none" xmlns="http://www.w3.org/2000/svg">
    <path fill-rule="evenodd" clip-rule="evenodd" d="M0 39.7836C0 57.6523 14.3867 66.0944 27.6755 66.3594C37.586 66.5571 43.7941 65.7817 50.2021 63.3434L50.2021 63.3309H50.227V63.3294H50.2922V44.9905H57.9671V38.9772H35.0918V44.9905H42.7667V61.1707C37.5311 62.5231 32.3699 63.7684 24.1924 61.2866C12.3423 57.6901 7.95994 38.7237 12.2666 33.1208C15.7875 28.5401 23.5488 29.07 32.2187 29.9029C51.7408 31.7783 60.1691 18.8217 61.4431 0.449835C61.4694 0.0700524 60.9211 -0.148324 60.6479 0.116783C59.7819 0.956999 58.4632 1.97117 56.8275 2.87282C55.0344 3.8613 51.7535 3.69816 49.0183 3.56215C48.1499 3.51897 47.3366 3.47852 46.6433 3.47852C41.3934 3.21352 28.728 3.65267 20.0657 7.52925C9.23779 12.375 0 21.915 0 39.7836Z" fill="#29953A"/>
    <path fill-rule="evenodd" clip-rule="evenodd" d="M43.6907 11.5799C43.6907 12.1478 44.8264 12.6778 46.8329 13.1699C49.18 13.7457 52.8923 13.7745 54.9343 12.1478C56.6863 10.7521 57.7862 8.32384 58.654 6.21492C58.7796 5.90973 58.333 5.61979 58.0949 5.8483C56.9114 6.98409 55.3045 8.31284 53.6472 9.19493C50.7025 10.7622 47.7428 10.7534 45.8609 10.7477C45.7522 10.7474 45.647 10.7471 45.5457 10.7471C44.0617 10.7471 43.6907 11.0121 43.6907 11.5799ZM35.3992 14.0786C33.1491 14.523 30.9096 15.3101 29.5273 16.2759C28.677 16.87 29.2418 17.7689 30.2778 17.7188C31.4788 17.6607 32.9223 17.6351 34.0363 17.8264C36.2949 18.2143 38.05 18.8522 39.6925 19.4492C41.8257 20.2245 43.769 20.9307 46.3786 20.9307C50.4803 20.9307 53.373 18.4977 54.8213 16.6843C55.3962 15.9645 54.7531 15.2911 53.8518 15.4814C52.7822 15.7071 51.4779 15.8792 50.2579 15.8792C49.2113 15.8792 47.4814 15.5189 45.5038 15.107C42.1364 14.4057 38.0511 13.5548 35.3992 14.0786ZM24.6476 19.795C21.9543 20.269 19.6889 22.4123 18.4103 24.2051C17.7956 25.0669 18.4668 26.0793 19.5253 26.0793H23.5875C24.3656 26.0793 25.8156 26.1991 27.6055 26.3469L27.6055 26.3469C32.2599 26.7313 39.2129 27.3055 42.631 26.4579C44.8012 25.9197 46.3991 24.9412 47.382 24.0471C48.0494 23.4401 47.464 22.7866 46.5801 22.9671C45.3232 23.2237 43.7124 23.4293 42.2145 23.4293C40.9572 23.4293 38.6881 22.7311 36.1112 21.9382L36.1112 21.9382C32.1701 20.7256 27.5091 19.2914 24.6476 19.795Z" fill="#B2D43B"/>
    <path d="M76.2447 56.8565H62.6793C62.8012 58.0576 63.0949 58.9523 63.5604 59.5406C64.2143 60.3862 65.0677 60.809 66.1205 60.809C66.7855 60.809 67.4172 60.6252 68.0157 60.2575C68.3814 60.0247 68.7749 59.6141 69.196 59.0258L75.8624 59.706C74.8427 61.667 73.6126 63.0764 72.1718 63.9343C70.731 64.78 68.6641 65.2028 65.9709 65.2028C63.6324 65.2028 61.7927 64.8412 60.4517 64.1181C59.1106 63.3828 57.9968 62.2246 57.1102 60.6436C56.2346 59.0503 55.7969 57.1813 55.7969 55.0365C55.7969 51.9848 56.678 49.5152 58.4401 47.6278C60.2134 45.7404 62.6572 44.7967 65.7714 44.7967C68.2983 44.7967 70.2932 45.2195 71.7562 46.0651C73.2191 46.9108 74.3329 48.1364 75.0977 49.7419C75.8624 51.3475 76.2447 53.4371 76.2447 56.0108V56.8565ZM69.3623 53.2716C69.2293 51.8254 68.8746 50.7898 68.2983 50.1648C67.7331 49.5397 66.985 49.2272 66.0541 49.2272C64.979 49.2272 64.1201 49.699 63.4773 50.6427C63.0672 51.231 62.8068 52.1073 62.6959 53.2716H69.3623Z" fill="#29953A"/>
    <path d="M92.1794 57.1323L98.613 57.9412C98.2584 59.4241 97.6765 60.711 96.8675 61.8018C96.0584 62.8803 95.0222 63.7198 93.7587 64.3204C92.5064 64.9209 90.9104 65.2212 88.9709 65.2212C87.0979 65.2212 85.5353 65.0312 84.2829 64.6513C83.0416 64.2591 81.9721 63.634 81.0744 62.7761C80.1767 61.9059 79.4729 60.8887 78.9631 59.7244C78.4533 58.5601 78.1984 57.0158 78.1984 55.0916C78.1984 53.0817 78.5087 51.4087 79.1294 50.0728C79.5838 49.0924 80.2044 48.2161 80.9913 47.4439C81.7782 46.6596 82.5872 46.0774 83.4184 45.6975C84.7373 45.0969 86.4274 44.7967 88.4888 44.7967C91.3704 44.7967 93.5648 45.3666 95.0721 46.5064C96.5904 47.6462 97.6544 49.313 98.2639 51.5068L91.8968 52.4444C91.6973 51.611 91.3316 50.9859 90.7996 50.5692C90.2787 50.1402 89.575 49.9258 88.6883 49.9258C87.569 49.9258 86.6602 50.3731 85.962 51.2678C85.2748 52.1502 84.9312 53.4922 84.9312 55.2939C84.9312 56.8994 85.2748 58.1189 85.962 58.9523C86.6491 59.7857 87.5246 60.2024 88.5886 60.2024C89.4752 60.2024 90.2178 59.9511 90.8162 59.4486C91.4258 58.9461 91.8802 58.174 92.1794 57.1323Z" fill="#29953A"/>
    <path d="M101.381 37.8108H108.147V47.7381C109.067 46.6841 109.982 45.9303 110.89 45.4769C111.799 45.0234 112.874 44.7967 114.115 44.7967C115.955 44.7967 117.402 45.4156 118.454 46.6534C119.518 47.8913 120.05 49.791 120.05 52.3524V64.7616H113.251V54.0254C113.251 52.7998 113.046 51.9357 112.636 51.4332C112.226 50.9185 111.65 50.6611 110.907 50.6611C110.087 50.6611 109.422 51.0043 108.912 51.6906C108.402 52.377 108.147 53.6087 108.147 55.3858V64.7616H101.381V37.8108Z" fill="#29953A"/>
</svg>
