<svg width="184" height="99" viewBox="0 0 184 99" fill="none" xmlns="http://www.w3.org/2000/svg">
    <path d="M68.0002 23.5L68.0001 23.4964C67.9559 11.082 78.0509 1 90.5001 1C102.946 1 113 11.0795 113 23.5C113 35.9192 102.901 46 90.5001 46C78.0541 46 68.0002 35.9205 68.0002 23.5Z" stroke="black" stroke-width="2"/>
    <path d="M81.6197 56H101.38C117.759 56 131 69.0795 131 85.2086V87.1727C131 88.3884 130.405 89.3519 129.072 90.1684C127.692 91.0141 125.606 91.6365 122.877 92.0714C117.431 92.9389 109.864 93 101.38 93H81.6197C73.129 93 65.5646 92.9972 60.1179 92.1582C57.3888 91.7378 55.3079 91.1225 53.9321 90.2698C52.6098 89.4501 52 88.4607 52 87.1727V85.2086C52 69.0795 65.2414 56 81.6197 56Z" fill="#227A30" stroke="black" stroke-width="2"/>
    <path fill-rule="evenodd" clip-rule="evenodd" d="M11.8511 83.9668C14.1153 85.3391 15.6461 87.8033 15.6461 90.6383C15.6461 94.9519 12.1375 98.4613 7.82302 98.4613C3.50852 98.4613 -1.88551e-07 94.9519 0 90.6383C1.88551e-07 86.3248 3.50852 82.8153 7.82302 82.8153C8.60417 82.8153 9.34335 82.965 10.0557 83.1789L17.427 69.562C16.4129 68.2425 15.7854 66.6119 15.7854 64.823C15.7854 60.5095 19.294 57 23.6085 57C27.9229 57 31.4315 60.5095 31.4315 64.823C31.4315 66.9476 30.5739 68.872 29.195 70.2832L36.6933 83.0591C37.2882 82.9139 37.9013 82.8154 38.5402 82.8154C40.1886 82.8154 41.7193 83.3276 42.9817 84.2013L51.5103 68.4233C51.7729 67.9374 52.3797 67.7565 52.8655 68.0191C53.3514 68.2817 53.5323 68.8885 53.2697 69.3743L44.5074 85.5846C45.6645 86.9488 46.3631 88.7135 46.3631 90.6383C46.3631 94.9519 42.8546 98.4613 38.5401 98.4613C34.2256 98.4613 30.7171 94.9519 30.7171 90.6383C30.7171 87.6663 32.4017 85.1072 34.8492 83.7834L27.6365 71.4946C26.4561 72.2103 25.0877 72.646 23.6085 72.646C21.8189 72.646 20.1878 72.0184 18.869 71.0042L11.8511 83.9668ZM38.5402 94.5498C40.6965 94.5498 42.4517 92.7955 42.4517 90.6383C42.4517 88.4811 40.6965 86.7268 38.5402 86.7268C36.3839 86.7268 34.6287 88.4811 34.6287 90.6383C34.6287 92.7956 36.3839 94.5498 38.5402 94.5498ZM23.6085 60.9115C21.4522 60.9115 19.697 62.6658 19.697 64.823C19.697 66.9803 21.4522 68.7345 23.6085 68.7345C25.7648 68.7345 27.52 66.9803 27.52 64.823C27.52 62.6657 25.7648 60.9115 23.6085 60.9115ZM7.82308 86.7268C5.66676 86.7268 3.91157 88.4811 3.91157 90.6383C3.91157 92.7956 5.66682 94.5498 7.82308 94.5498C9.9794 94.5498 11.7346 92.7955 11.7346 90.6383C11.7346 88.4811 9.9794 86.7268 7.82308 86.7268Z" fill="black"/>
    <path fill-rule="evenodd" clip-rule="evenodd" d="M171.539 83.9668C169.275 85.3391 167.744 87.8033 167.744 90.6383C167.744 94.9519 171.253 98.4613 175.567 98.4613C179.882 98.4613 183.39 94.9519 183.39 90.6383C183.39 86.3248 179.882 82.8153 175.567 82.8153C174.786 82.8153 174.047 82.965 173.334 83.1789L165.963 69.562C166.977 68.2425 167.605 66.6119 167.605 64.823C167.605 60.5095 164.096 57 159.782 57C155.467 57 151.959 60.5095 151.959 64.823C151.959 66.9476 152.816 68.872 154.195 70.2832L146.697 83.0591C146.102 82.9139 145.489 82.8154 144.85 82.8154C143.202 82.8154 141.671 83.3276 140.408 84.2013L131.88 68.4233C131.617 67.9374 131.01 67.7565 130.525 68.0191C130.039 68.2817 129.858 68.8885 130.12 69.3743L138.883 85.5846C137.726 86.9488 137.027 88.7135 137.027 90.6383C137.027 94.9519 140.536 98.4613 144.85 98.4613C149.165 98.4613 152.673 94.9519 152.673 90.6383C152.673 87.6663 150.988 85.1072 148.541 83.7834L155.754 71.4946C156.934 72.2103 158.302 72.646 159.782 72.646C161.571 72.646 163.202 72.0184 164.521 71.0042L171.539 83.9668ZM144.85 94.5498C142.694 94.5498 140.938 92.7955 140.938 90.6383C140.938 88.4811 142.694 86.7268 144.85 86.7268C147.006 86.7268 148.761 88.4811 148.761 90.6383C148.761 92.7956 147.006 94.5498 144.85 94.5498ZM159.782 60.9115C161.938 60.9115 163.693 62.6658 163.693 64.823C163.693 66.9803 161.938 68.7345 159.782 68.7345C157.625 68.7345 155.87 66.9803 155.87 64.823C155.87 62.6657 157.625 60.9115 159.782 60.9115ZM175.567 86.7268C177.723 86.7268 179.479 88.4811 179.479 90.6383C179.479 92.7956 177.723 94.5498 175.567 94.5498C173.411 94.5498 171.656 92.7955 171.656 90.6383C171.656 88.4811 173.411 86.7268 175.567 86.7268Z" fill="black"/>
</svg>
