<svg width="90" height="117" viewBox="0 0 90 117" fill="none" xmlns="http://www.w3.org/2000/svg">
    <path d="M47.888 5.7351C47.1486 4.99556 46.1276 4.53735 45.0001 4.53735C43.8716 4.53711 42.8503 4.99544 42.1116 5.73534C41.3729 6.47008 40.916 7.49119 40.916 8.62094C40.916 9.75093 41.3729 10.7718 42.1116 11.5068C42.8252 12.2233 43.7798 12.6487 44.7897 12.7002H45.2097C46.2197 12.6486 47.1743 12.2232 47.888 11.5068C48.268 11.1285 48.5693 10.6788 48.7745 10.1835C48.9797 9.68814 49.0848 9.15708 49.0837 8.62094C49.0848 8.08483 48.9797 7.5538 48.7745 7.05853C48.5693 6.56325 48.268 6.11329 47.888 5.7351ZM45.0001 0C47.631 0 50.0133 0.158892 51.7371 1.88308C53.4612 3.60715 54.5287 5.98957 54.5287 8.62106H63.4186C64.5232 8.62106 65.4186 9.51649 65.4186 10.6211V20.2336C65.4186 21.3382 64.5232 22.2336 63.4186 22.2336H26.5811C25.4765 22.2336 24.5811 21.3382 24.5811 20.2336V10.6209C24.5811 9.51637 25.4765 8.62094 26.5811 8.62094H35.471C35.471 5.98921 36.5378 3.60715 38.262 1.88296C39.9868 0.158772 42.3687 0 45.0001 0ZM9.12866 12.7002H18.9512C20.0557 12.7002 20.9512 13.5956 20.9512 14.7002V16.1452C20.9512 17.2498 20.0558 18.1452 18.9512 18.1452H9.12866C8.13298 18.1452 7.22603 18.5535 6.56672 19.2115C5.90801 19.8694 5.49885 20.7771 5.49885 21.7753V107.08C5.49885 109.067 7.13813 110.71 9.12878 110.71H80.8711C82.861 110.71 84.5008 109.067 84.5008 107.08V21.7753C84.5008 20.7816 84.0916 19.874 83.4321 19.2115C82.773 18.5537 81.8658 18.1452 80.8712 18.1452H71.0487C69.9441 18.1452 69.0487 17.2498 69.0487 16.1452V14.7002C69.0487 13.5956 69.9441 12.7002 71.0487 12.7002H80.8712C83.3691 12.7002 85.6391 13.721 87.2822 15.3637C88.9259 17.0064 89.9461 19.275 89.9461 21.7753V107.08C89.9461 112.071 85.8662 116.155 80.8712 116.155H9.12866C4.13286 116.155 0.0537109 112.076 0.0537109 107.08V21.7753C0.0537109 19.275 1.07362 17.0064 2.71722 15.3637C4.36058 13.7211 6.63028 12.7002 9.12866 12.7002Z" fill="black"/>
    <path d="M18.7197 56.8333H56.7197V63.1667H18.7197V56.8333ZM18.7197 41H69.3864V47.3333H18.7197V41ZM18.7197 79H41.6306V72.6667H18.7197V79Z" fill="black"/>
    <path d="M70.0944 96.156L75.8051 101.865L73.9184 103.752L68.2091 98.0413C66.0847 99.7443 63.4424 100.67 60.7197 100.667C54.0957 100.667 48.7197 95.2906 48.7197 88.6666C48.7197 82.0426 54.0957 76.6666 60.7197 76.6666C67.3437 76.6666 72.7197 82.0426 72.7197 88.6666C72.7236 91.3893 71.7974 94.0316 70.0944 96.156ZM67.4197 95.1666C69.1119 93.4265 70.0569 91.0939 70.0531 88.6666C70.0531 83.5093 65.8757 79.3333 60.7197 79.3333C55.5624 79.3333 51.3864 83.5093 51.3864 88.6666C51.3864 93.8226 55.5624 98 60.7197 98C63.147 98.0038 65.4796 97.0588 67.2197 95.3666L67.4197 95.1666ZM62.2904 83.568C61.8972 83.7456 61.553 84.0159 61.2873 84.3558C61.0216 84.6956 60.8423 85.0949 60.7648 85.5193C60.6874 85.9437 60.714 86.3806 60.8425 86.7924C60.971 87.2042 61.1975 87.5788 61.5025 87.8838C61.8076 88.1889 62.1821 88.4153 62.594 88.5438C63.0058 88.6723 63.4426 88.699 63.867 88.6215C64.2914 88.544 64.6907 88.3647 65.0306 88.099C65.3705 87.8333 65.6408 87.4891 65.8184 87.096C66.1688 88.2341 66.1282 89.4568 65.703 90.5692C65.2779 91.6816 64.4927 92.6197 63.4725 93.2341C62.4523 93.8484 61.2558 94.1037 60.0738 93.9591C58.8917 93.8145 57.792 93.2785 56.9499 92.4364C56.1078 91.5944 55.5718 90.4947 55.4273 89.3126C55.2827 88.1305 55.5379 86.9341 56.1523 85.9139C56.7666 84.8937 57.7047 84.1085 58.8171 83.6833C59.9295 83.2582 61.1522 83.2176 62.2904 83.568Z" fill="#227A30"/>
</svg>
