<svg width="106" height="108" viewBox="0 0 106 108" fill="none" xmlns="http://www.w3.org/2000/svg">
    <path d="M12.96 44.4133C5.81333 44.4133 0 38.64 0 31.5333C0 24.4267 5.81333 18.6533 12.96 18.6533C20.1067 18.6533 25.92 24.4267 25.92 31.5333C25.92 38.64 20.1067 44.4133 12.96 44.4133ZM12.96 24.6533C9.12 24.6533 6 27.7467 6 31.5333C6 35.32 9.12 38.4133 12.96 38.4133C16.8 38.4133 19.92 35.32 19.92 31.5333C19.92 27.7467 16.8 24.6533 12.96 24.6533ZM22.9867 108C15.84 108 10.0267 102.227 10.0267 95.12C10.0267 88.0133 15.84 82.24 22.9867 82.24C30.1333 82.24 35.9467 88.0133 35.9467 95.12C35.9467 102.227 30.1333 108 22.9867 108ZM22.9867 88.24C19.1467 88.24 16.0267 91.3333 16.0267 95.12C16.0267 98.92 19.1467 102 22.9867 102C26.8267 102 29.9467 98.9067 29.9467 95.12C29.9333 91.32 26.8133 88.24 22.9867 88.24ZM92.2133 59.36C85.0667 59.36 79.2533 53.5867 79.2533 46.48C79.2533 39.3733 85.0667 33.6 92.2133 33.6C99.36 33.6 105.173 39.3733 105.173 46.48C105.173 53.5867 99.36 59.36 92.2133 59.36ZM92.2133 39.6C88.3733 39.6 85.2533 42.6933 85.2533 46.48C85.2533 50.28 88.3733 53.36 92.2133 53.36C96.0533 53.36 99.1733 50.2667 99.1733 46.48C99.1733 42.68 96.04 39.6 92.2133 39.6ZM75.04 98.28C69.16 98.28 64.3867 93.52 64.3867 87.68C64.3867 81.84 69.1733 77.08 75.04 77.08C80.9067 77.08 85.6933 81.84 85.6933 87.68C85.6933 93.52 80.92 98.28 75.04 98.28ZM75.04 83.08C72.4667 83.08 70.3867 85.1467 70.3867 87.68C70.3867 90.2133 72.48 92.28 75.04 92.28C77.6 92.28 79.6933 90.2133 79.6933 87.68C79.6933 85.1333 77.6 83.08 75.04 83.08ZM48.1067 79.2667C35.48 79.2667 25.2 69.0533 25.2 56.5067C25.2 43.96 35.48 33.7467 48.1067 33.7467C60.7333 33.7467 71.0133 43.96 71.0133 56.5067C71.0133 69.0533 60.7333 79.2667 48.1067 79.2667ZM48.1067 39.7467C38.7867 39.7467 31.2 47.2667 31.2 56.5067C31.2 65.7467 38.7733 73.2667 48.1067 73.2667C57.44 73.2667 65.0133 65.7467 65.0133 56.5067C65.0133 47.2667 57.4267 39.7467 48.1067 39.7467ZM63.5067 30.32C55.0933 30.32 48.2533 23.52 48.2533 15.16C48.2533 6.8 55.0933 0 63.5067 0C71.92 0 78.76 6.8 78.76 15.16C78.76 23.52 71.9067 30.32 63.5067 30.32ZM63.5067 6C58.4 6 54.2533 10.1067 54.2533 15.16C54.2533 20.2133 58.4 24.32 63.5067 24.32C68.6133 24.32 72.76 20.2133 72.76 15.16C72.76 10.1067 68.6 6 63.5067 6Z" fill="black"/>
    <path d="M67.5061 55.0933C66.1328 55.0933 64.9061 54.1467 64.5861 52.76C64.2128 51.1467 65.2261 49.5333 66.8394 49.1733L81.8928 45.7467C83.5061 45.3733 85.1194 46.3867 85.4794 48C85.8394 49.6133 84.8394 51.2267 83.2261 51.5867L68.1728 55.0133C67.9594 55.0667 67.7328 55.0933 67.5061 55.0933ZM55.0128 40.9733C54.6661 40.9733 54.3061 40.9067 53.9594 40.7867C52.4128 40.2133 51.6128 38.48 52.1994 36.9333L56.4394 25.5333C57.0128 23.9867 58.7461 23.1867 60.2928 23.7733C61.8394 24.3467 62.6394 26.08 62.0528 27.6267L57.8128 39.0267C57.3728 40.2267 56.2261 40.9733 55.0128 40.9733ZM31.9061 48C31.3061 48 30.6928 47.8133 30.1728 47.44L19.3194 39.72C17.9728 38.76 17.6528 36.8933 18.6128 35.5333C19.5728 34.1867 21.4394 33.8667 22.7994 34.8267L33.6528 42.5467C34.9994 43.5067 35.3194 45.3733 34.3594 46.7333C33.7728 47.56 32.8528 48 31.9061 48ZM28.7728 90.08C28.2261 90.08 27.6661 89.9333 27.1728 89.6133C25.7728 88.7333 25.3594 86.88 26.2394 85.48L34.9861 71.6533C35.8661 70.2533 37.7194 69.84 39.1194 70.72C40.5194 71.6 40.9328 73.4533 40.0528 74.8533L31.3061 88.68C30.7328 89.5867 29.7594 90.08 28.7728 90.08ZM70.0128 84.9467C69.1728 84.9467 68.3461 84.6 67.7594 83.92L58.6928 73.5733C57.5994 72.3333 57.7194 70.4267 58.9728 69.3333C60.2128 68.24 62.1194 68.36 63.2128 69.6133L72.2794 79.96C73.3728 81.2 73.2528 83.1067 71.9994 84.2C71.4261 84.6933 70.7194 84.9467 70.0128 84.9467Z" fill="black"/>
    <path d="M56.91 48.91C57.3326 48.5076 57.895 48.2852 58.4784 48.2896C59.0619 48.294 59.6209 48.5249 60.0373 48.9336C60.4538 49.3423 60.6952 49.8968 60.7106 50.4801C60.726 51.0634 60.5143 51.6298 60.12 52.06L48.15 67.03C47.9442 67.2517 47.6957 67.4296 47.4196 67.5531C47.1434 67.6766 46.8452 67.7431 46.5427 67.7487C46.2403 67.7543 45.9398 67.6988 45.6593 67.5857C45.3787 67.4725 45.1239 67.3039 44.91 67.09L36.972 59.152C36.7509 58.946 36.5736 58.6976 36.4506 58.4216C36.3277 58.1456 36.2615 57.8476 36.2562 57.5455C36.2509 57.2434 36.3065 56.9433 36.4196 56.6632C36.5328 56.383 36.7012 56.1285 36.9149 55.9148C37.1285 55.7012 37.383 55.5328 37.6632 55.4196C37.9434 55.3064 38.2434 55.2509 38.5456 55.2562C38.8477 55.2615 39.1456 55.3276 39.4216 55.4506C39.6976 55.5736 39.946 55.7509 40.152 55.972L46.434 62.251L56.853 48.976C56.8717 48.9529 56.8918 48.9308 56.913 48.91H56.91Z" fill="#227A30"/>
</svg>
