<svg width="92" height="89" viewBox="0 0 92 89" fill="none" xmlns="http://www.w3.org/2000/svg">
    <path d="M80.3959 82.9884H3.00581C1.39891 82.9884 0.103027 84.2843 0.103027 85.943C0.103027 87.5499 1.39891 88.8976 3.00581 88.8976H80.3959C82.0028 88.8976 83.2987 87.6017 83.2987 85.943C83.2987 84.3361 82.0028 82.9884 80.3959 82.9884ZM23.6881 14.9287H29.5455V55.5675H23.6881V14.9287ZM13.2692 14.9287H19.1266V55.5675H13.2692V14.9287ZM34.6253 14.8768H38.6166V55.5157H34.6253V14.8768Z" fill="black"/>
    <path d="M6.3239 71.118H46.9109C45.3559 69.3556 44.06 67.3859 43.0233 65.2606H6.3239C6.06473 65.2606 5.85738 65.0533 5.85738 64.7941V6.32391C5.85738 6.06473 6.06473 5.85738 6.3239 5.85738H77.1309C77.3901 5.85738 77.5974 6.06473 77.5974 6.32391V31.2567C79.7227 32.2934 81.6924 33.6411 83.4548 35.248V6.32391C83.4548 2.85094 80.6039 0 77.1309 0H6.3239C2.85094 0 0 2.85094 0 6.32391V64.7941C0 68.2671 2.85094 71.118 6.3239 71.118Z" fill="black"/>
    <path d="M66.3998 28.8724C67.6957 28.8724 68.9397 28.976 70.132 29.1315V14.8768H64.2746V28.976C65.0003 28.9242 65.6741 28.8724 66.3998 28.8724ZM58.3135 30.0127V14.8768H55.7218V30.9976C56.5511 30.6348 57.4323 30.2719 58.3135 30.0127ZM49.7607 35.4036V14.8768H43.9033V42.7124C45.4065 39.9133 47.3763 37.4252 49.7607 35.4036ZM90.9179 74.1246L81.5876 64.7942C83.6091 61.8396 84.8014 58.2111 84.8014 54.3753C84.8014 44.1119 76.4559 35.7665 66.1925 35.7665C55.9291 35.7665 47.5836 44.1119 47.5836 54.3753C47.5836 64.6387 55.9291 72.9842 66.1925 72.9842C70.443 72.9842 74.4343 71.5328 77.5444 69.0965L86.7193 78.2714C87.8596 79.4118 89.7257 79.4118 90.8661 78.2714C92.0583 77.131 92.0583 75.2649 90.9179 74.1246ZM53.441 54.3753C53.441 47.3776 59.1429 41.6238 66.1925 41.6238C73.1902 41.6238 78.944 47.3257 78.944 54.3753C78.944 61.3731 73.2421 67.1268 66.1925 67.1268C59.1947 67.075 53.441 61.3731 53.441 54.3753Z" fill="#227A30"/>
</svg>
