<svg width="41" height="28" viewBox="0 0 41 28" fill="none" xmlns="http://www.w3.org/2000/svg">
    <path d="M11.1587 26.3183H9.02594C5.6214 26.104 1.57676 23.7629 1.42496 18.6023C1.26425 13.139 4.98791 11.9514 7.36324 11.0013C8.70924 7.83417 13.2065 1.5 20.4274 1.5C27.6484 1.5 31.8289 7.51746 33.0166 10.5262C35.2336 11.0013 39.62 13.3766 39.4299 19.0773C39.2399 24.7781 33.4917 26.2033 29.6912 26.2033" stroke="#131521" stroke-width="2.34" stroke-linecap="round"/>
    <path d="M11.3965 18.655L15.197 13.8516M15.197 13.8516L18.9975 18.655M15.197 13.8516V26.2032" stroke="#131521" stroke-width="2.34" stroke-linecap="round" stroke-linejoin="round"/>
    <path d="M28.9736 21.4L25.4107 26.2034M25.4107 26.2034L21.8477 21.4M25.4107 26.2034L25.4107 13.8517" stroke="#131521" stroke-width="2.34" stroke-linecap="round" stroke-linejoin="round"/>
</svg>
